<!DOCTYPE svg PUBLIC "-//W3C//DTD SVG 20010904//EN" "http://www.w3.org/TR/2001/REC-SVG-20010904/DTD/svg10.dtd">
<svg version="1.0" xmlns="http://www.w3.org/2000/svg" width="559px" height="492px" viewBox="0 0 5590 4920" preserveAspectRatio="xMidYMid meet">
    <path
      d="M2330 3995 l0 -465 359 -473 358 -472 -454 -5 -455 -5 456 -602 457 -602 -3 -151 -3 -150 -632 832 -631 833 454 3 454 2 -177 237 -178 236 -3 -151 -3 -152 -459 -2 -460 -3 911 -1200 c500 -660 914 -1201 919 -1203 6 -2 10 170 10 461 l0 464 -360 474 -359 474 455 5 455 5 -456 600 -455 600 0 154 0 154 79 -104 c44 -57 329 -432 634 -834 l553 -730 -452 -5 -453 -5 177 -235 177 -235 3 148 3 147 460 0 c280 0 459 4 457 9 -6 18 -1823 2410 -1830 2411 -5 0 -8 -209 -8 -465z"/>
</svg>
