<?xml version="1.0"?>
	<svg xmlns="http://www.w3.org/2000/svg" xmlns:xlink="http://www.w3.org/1999/xlink" version="1.1" viewBox="0 0 1400 1400">
	  <g id="layer101" stroke="none">
		<path d="M754 1221 c-95 -12 -110 -56 -45 -127 39 -42 111 -170 111 -198 0 -20 -20 -25 -68 -16 -57 10 -73 25 -62 56 13 32 -6 62 -40 66 -19 2 -26 10 -30 33 -5 28 -9 30 -90 47 -47 10 -109 21 -137 24 -51 7 -53 6 -53 -18 0 -13 6 -30 13 -37 6 -7 -13 1 -43 17 -30 17 -74 34 -97 38 -36 6 -43 4 -54 -17 -8 -15 -14 -77 -17 -160 -5 -155 11 -237 51 -264 15 -9 24 -26 25 -47 3 -42 27 -78 52 -78 16 0 20 -7 20 -32 0 -69 59 -158 96 -146 5 2 36 -25 69 -58 99 -101 196 -121 212 -44 4 24 10 29 22 24 38 -17 149 -35 184 -31 48 7 67 22 67 56 0 24 6 29 54 44 66 21 161 82 204 131 40 46 43 86 7 114 l-25 20 20 77 c25 98 25 126 0 158 -15 19 -20 40 -20 92 0 88 -19 124 -65 125 -13 0 -30 17 -47 45 -17 28 -34 45 -46 45 -10 0 -27 9 -38 21 -43 47 -95 56 -230 40z m-4 -66 c14 -16 10 -18 -14 -9 -9 3 -16 10 -16 15 0 14 16 11 30 -6z m86 -31 c-9 -6 -16 -21 -16 -34 0 -19 -3 -20 -15 -10 -12 10 -12 15 1 36 9 13 13 32 10 41 -6 14 -4 14 14 -2 19 -17 20 -21 6 -31z m85 33 c13 -10 49 -72 49 -84 0 -1 -11 -3 -24 -3 -15 0 -32 -11 -44 -27 -24 -32 -32 -29 -25 9 3 18 12 28 27 30 29 4 32 38 6 66 -22 23 -15 29 11 9z m123 -140 c6 -26 5 -27 -14 -15 -11 7 -18 19 -15 26 3 8 5 21 5 30 1 15 2 15 9 2 5 -8 11 -27 15 -43z m-512 13 c21 0 31 -8 44 -36 10 -20 26 -39 35 -41 14 -4 17 -12 12 -34 -4 -22 1 -34 25 -59 17 -16 38 -30 48 -30 13 0 8 -9 -19 -34 -42 -38 -48 -76 -22 -126 l16 -30 -52 0 c-61 0 -89 -19 -89 -62 0 -33 0 -33 -50 -8 -22 11 -48 20 -59 20 -29 0 -51 -38 -52 -90 0 -37 -2 -41 -9 -23 -13 33 -23 119 -16 138 5 14 8 14 35 0 52 -27 61 -21 61 39 l0 54 55 7 c46 5 55 10 55 27 0 11 -11 33 -25 50 -24 28 -24 31 -9 60 14 26 14 37 3 76 -7 26 -28 63 -47 84 l-33 37 33 -9 c18 -6 45 -10 60 -10z m-264 -9 c37 -19 75 -55 105 -100 16 -23 15 -25 -16 -40 -24 -12 -33 -24 -35 -47 -3 -27 -6 -30 -31 -26 -33 5 -39 -3 -50 -60 -7 -40 -8 -42 -19 -21 -17 31 -33 156 -27 206 17 122 14 118 73 88z m702 -8 c0 -5 -9 -19 -19 -32 l-18 -23 5 31 c2 18 10 31 18 31 8 0 14 -3 14 -7z m153 -40 c8 -44 -2 -77 -29 -90 -21 -10 -26 -8 -36 10 -14 28 -27 37 -55 37 -15 0 -21 5 -17 14 5 12 10 12 33 -2 35 -20 60 -10 74 28 14 37 23 38 30 3z m-675 -38 c-3 -3 -13 7 -23 22 l-17 28 23 -22 c12 -12 20 -25 17 -28z m573 -82 c7 -19 6 -20 -21 -10 -23 9 -27 14 -18 24 14 18 29 12 39 -14z m-76 -11 c-21 -5 -45 5 -45 17 0 5 13 4 31 -2 21 -8 26 -13 14 -15z m-495 -20 c0 -10 6 -27 14 -38 14 -18 12 -20 -27 -29 -39 -10 -42 -13 -45 -49 -3 -31 -6 -36 -20 -31 -47 20 -61 18 -67 -11 -4 -16 -10 -38 -15 -49 -7 -18 -8 -18 -15 7 -4 15 -2 42 4 59 6 18 11 42 11 54 0 18 4 21 25 17 34 -6 55 14 55 54 0 33 1 34 40 34 32 0 40 -4 40 -18z m638 -15 c10 6 31 9 46 6 26 -5 27 -8 21 -42 -10 -61 -35 -129 -52 -143 -15 -12 -15 -9 -8 27 5 22 9 58 9 80 1 36 -1 40 -27 43 -15 2 -32 12 -38 23 -9 18 -8 19 10 7 16 -10 25 -10 39 -1z m-320 -45 c-9 -35 -8 -46 6 -67 9 -14 23 -25 31 -25 24 0 17 -14 -20 -38 -40 -25 -43 -46 -20 -112 8 -24 13 -45 10 -48 -2 -3 -30 0 -61 7 -32 6 -71 11 -87 11 l-30 0 5 -109 c5 -98 4 -109 -11 -104 -32 12 -83 56 -127 111 -38 49 -44 63 -44 105 0 26 3 47 7 47 3 0 30 -13 60 -30 29 -16 62 -30 73 -30 18 0 20 7 20 55 l0 55 53 0 c76 0 97 8 97 36 0 12 -4 25 -9 29 -5 3 -15 22 -22 42 -12 37 -12 37 32 75 24 20 44 36 46 35 1 -2 -3 -22 -9 -45z m171 31 c45 6 61 -6 61 -45 0 -24 4 -28 29 -28 l28 0 -13 -57 c-17 -74 -7 -95 44 -92 20 2 48 -3 61 -10 l23 -13 -38 -40 c-45 -45 -171 -111 -204 -106 -13 1 -27 13 -31 25 -7 20 -2 27 46 58 50 32 55 38 55 71 0 21 -9 49 -21 66 -18 25 -20 34 -10 54 6 14 11 40 11 58 0 37 -12 46 -60 46 -15 0 -34 8 -41 18 -13 15 -12 16 4 3 11 -9 31 -12 56 -8z m-48 -59 c43 -7 43 -8 18 -70 -11 -28 -10 -32 15 -57 14 -14 26 -33 26 -41 0 -8 -22 -30 -50 -50 -45 -32 -50 -40 -50 -73 1 -21 7 -49 15 -63 8 -14 14 -35 15 -47 0 -28 -29 -30 -114 -8 -89 23 -116 43 -116 83 0 31 2 34 23 28 85 -23 142 -18 152 13 3 11 0 44 -8 74 l-15 55 44 36 c55 46 57 72 7 93 -48 19 -45 16 -37 47 6 27 7 27 21 7 8 -13 31 -24 54 -27z" />
		<path d="M234 976 c-12 -31 0 -51 31 -51 27 0 30 3 30 30 0 25 -4 30 -28 33 -17 2 -29 -2 -33 -12z" />
	  </g>
	</svg>
