<?xml version="1.0"?>
	<svg xmlns="http://www.w3.org/2000/svg" xmlns:xlink="http://www.w3.org/1999/xlink" version="1.1" viewBox="0 0 1400 1400">
	  <g id="layer101" stroke="none">
		<path d="M415 1206 c-178 -45 -245 -90 -245 -167 0 -22 4 -48 9 -58 15 -28 82 -69 138 -86 38 -11 61 -27 87 -57 20 -23 36 -44 36 -47 2 -347 8 -610 14 -623 19 -41 65 -33 92 18 17 32 22 35 49 28 17 -4 53 -8 80 -8 28 0 64 4 80 8 27 7 32 4 49 -28 27 -51 73 -59 92 -18 6 13 12 276 14 623 0 3 16 24 36 47 26 30 49 46 87 57 56 17 123 58 138 86 17 32 10 95 -13 124 -29 37 -121 77 -234 104 -133 31 -381 29 -509 -3z m506 -60 c122 -31 188 -62 200 -94 8 -20 6 -29 -8 -44 -16 -15 -38 -19 -135 -21 l-117 -2 -33 36 c-30 33 -110 69 -153 69 -43 0 -123 -36 -153 -69 l-33 -36 -117 2 c-97 2 -119 6 -135 21 -45 46 21 94 188 138 132 34 363 34 496 0z m-171 -141 c14 -7 38 -27 54 -44 22 -23 42 -32 77 -37 l47 -6 -44 -58 c-24 -32 -44 -64 -44 -72 0 -7 -9 1 -20 19 -28 46 -74 67 -145 67 -71 0 -117 -21 -145 -67 -11 -18 -20 -26 -20 -19 0 8 -20 40 -44 72 l-44 58 46 6 c35 5 56 15 83 42 62 60 131 74 199 39z m-4 -198 c26 -13 54 -57 54 -83 0 -11 -68 -1 -84 11 -11 8 -29 15 -41 15 -12 0 -30 -7 -41 -15 -16 -12 -84 -22 -84 -11 0 1 5 17 11 35 21 60 114 85 185 48z m47 -142 c57 -6 57 -6 57 -40 l0 -34 -23 23 c-25 25 -93 42 -127 31 -31 -10 -25 -48 14 -83 45 -39 101 -58 121 -42 13 11 15 -7 15 -134 0 -96 -4 -145 -10 -141 -5 3 -10 12 -10 19 0 8 -7 19 -15 26 -12 10 -24 8 -64 -9 -62 -26 -90 -26 -152 0 -40 17 -52 19 -64 9 -8 -7 -15 -18 -15 -26 0 -7 -4 -16 -10 -19 -6 -4 -10 45 -10 141 0 127 2 145 15 134 20 -16 76 3 121 42 39 35 45 73 14 83 -34 11 -102 -6 -127 -31 l-23 -23 0 34 c0 34 0 34 58 40 31 3 71 12 87 19 25 11 35 11 60 0 17 -7 56 -16 88 -19z" />
	  </g>
	</svg>
