<?xml version="1.0"?>
	<svg xmlns="http://www.w3.org/2000/svg" xmlns:xlink="http://www.w3.org/1999/xlink" version="1.1" viewBox="0 0 1400 1400">
	  <g id="layer101" stroke="none">
		<path d="M617 1138 c-77 -87 -97 -124 -97 -178 0 -81 91 -130 151 -81 23 19 24 19 48 0 62 -49 151 0 151 83 -1 24 -9 57 -18 75 -24 44 -140 173 -157 173 -7 0 -42 -33 -78 -72z m164 -91 c27 -34 39 -59 39 -81 0 -62 -48 -75 -95 -26 l-29 30 -31 -30 c-50 -48 -95 -36 -95 26 0 33 19 64 84 131 l40 43 24 -23 c14 -12 42 -44 63 -70z" />
		<path d="M270 1145 c-15 -39 -12 -121 5 -163 22 -51 48 -76 135 -130 119 -73 120 -73 120 -160 0 -68 -2 -77 -30 -109 -29 -32 -30 -37 -30 -128 0 -179 25 -228 132 -260 65 -19 121 -19 186 0 107 32 132 81 132 260 0 91 -1 96 -30 128 -28 32 -30 41 -30 109 0 87 1 87 120 160 87 54 113 79 135 130 29 71 14 193 -23 186 -14 -3 -18 -18 -22 -85 -5 -74 -9 -86 -35 -113 -17 -18 -66 -53 -110 -80 -117 -71 -119 -73 -123 -191 l-4 -100 32 -41 33 -40 -5 -101 c-3 -56 -9 -110 -13 -119 -29 -70 -271 -70 -300 0 -4 9 -10 63 -13 119 l-5 101 33 40 32 41 -4 100 c-4 118 -6 120 -123 191 -44 27 -93 62 -110 80 -26 27 -30 39 -35 113 -4 67 -8 82 -22 85 -12 2 -21 -6 -28 -23z" />
	  </g>
	</svg>
