<!DOCTYPE svg PUBLIC "-//W3C//DTD SVG 20010904//EN" "http://www.w3.org/TR/2001/REC-SVG-20010904/DTD/svg10.dtd">
<svg version="1.0" xmlns="http://www.w3.org/2000/svg" width="379px" height="356px" viewBox="0 0 3790 3560" preserveAspectRatio="xMidYMid meet">
  <g id="layer101" fill="#30353D" stroke="none">
    <path
      d="M1470 3151 c-80 -26 -117 -47 -174 -101 l-51 -48 -105 -4 c-89 -3 -113 -8 -156 -31 -47 -24 -144 -117 -144 -138 0 -5 -34 -24 -75 -43 -131 -60 -220 -169 -253 -307 -15 -60 -16 -257 -3 -344 54 -344 215 -734 444 -1074 114 -167 229 -270 305 -271 17 0 22 -6 22 -25 0 -33 53 -91 109 -120 69 -35 218 -82 318 -101 66 -12 124 -15 233 -12 164 5 250 28 370 96 l65 37 35 -39 c45 -50 101 -76 168 -76 60 0 108 17 136 49 11 11 30 21 43 21 60 0 124 61 142 137 10 40 19 52 55 74 55 34 96 111 96 182 0 38 6 56 25 79 33 39 48 101 42 173 -7 88 -47 159 -109 191 l-27 14 56 118 c96 203 173 389 193 469 24 93 27 247 5 320 -19 64 -66 129 -108 149 -27 13 -37 28 -56 79 -48 135 -160 268 -290 345 -135 80 -356 130 -521 116 -63 -5 -80 -3 -105 12 -84 52 -259 69 -402 38 -67 -13 -79 -7 -37 20 38 25 14 34 -96 33 -63 0 -114 -6 -150 -18z m-695 -468 c-59 -140 -79 -280 -72 -487 3 -95 2 -154 -4 -145 -4 9 -22 57 -39 107 -25 76 -30 105 -30 190 0 127 23 207 85 291 43 58 76 82 60 44z m2392 -318 c25 -71 22 -211 -6 -290 -22 -60 -68 -141 -77 -132 -2 2 3 35 13 73 18 75 25 332 10 414 l-8 45 26 -30 c13 -16 33 -52 42 -80z"/>
  </g>
  <g id="layer102" fill="#ff6347" stroke="none">
    <path d="M1295 3049 c-22 -23 -49 -45 -60 -49 -14 -6 -15 -9 -5 -9 9 -1 38 22 65 49 27 28 47 50 44 50 -3 0 -23 -18 -44 -41z"/>
    <path d="M2283 3063 c20 -2 54 -2 75 0 20 2 3 4 -38 4 -41 0 -58 -2 -37 -4z"/>
    <path d="M2681 2996 c10 -9 89 -46 89 -41 0 5 -75 45 -86 45 -4 0 -5 -2 -3 -4z"/>
    <path d="M900 2905 c-24 -25 -42 -45 -39 -45 3 0 25 20 49 45 24 25 42 45 39 45 -3 0 -25 -20 -49 -45z"/>
    <path d="M2800 2937 c0 -3 17 -17 37 -33 20 -15 33 -23 29 -16 -8 13 -66 56 -66 49z"/>
    <path d="M2910 2845 c19 -19 36 -35 39 -35 3 0 -10 16 -29 35 -19 19 -36 35 -39 35 -3 0 10 -16 29 -35z"/>
    <path d="M2999 2735 c5 -11 17 -29 26 -40 l16 -20 -10 20 c-5 11 -17 29 -26 40 l-16 20 10 -20z"/>
    <path d="M621 2686 c-28 -30 -51 -58 -51 -62 0 -4 1 -5 3 -3 2 2 27 30 57 62 29 31 51 57 48 57 -3 0 -28 -24 -57 -54z"/>
    <path
      d="M1575 2619 c-108 -16 -189 -63 -229 -132 -32 -54 -38 -110 -13 -115 26 -5 47 16 47 48 0 15 7 33 15 40 13 11 15 8 15 -19 0 -26 4 -31 25 -31 13 0 36 5 50 12 20 9 25 18 25 50 0 34 6 43 27 36 4 -2 6 -18 4 -35 l-3 -33 55 0 c76 0 87 6 87 47 0 44 21 40 36 -7 12 -37 41 -53 89 -48 25 2 31 8 33 31 4 36 26 30 30 -9 4 -35 18 -53 50 -65 29 -11 52 4 52 33 0 38 25 11 31 -33 4 -24 15 -66 25 -94 9 -27 19 -56 20 -62 2 -7 13 -13 24 -13 16 0 20 6 20 34 0 51 -27 180 -44 214 -28 54 -122 117 -212 141 -58 16 -189 21 -259 10z"/>
    <path
      d="M1563 2389 c-31 -9 -33 -13 -33 -54 0 -56 -23 -61 -36 -7 -8 32 -12 37 -34 33 -54 -7 -63 -19 -57 -73 5 -43 4 -49 -11 -46 -9 2 -23 18 -31 36 -17 37 -40 41 -66 12 -18 -19 -18 -30 1 -113 6 -24 2 -29 -28 -42 -20 -8 -47 -16 -62 -19 -67 -12 -152 -93 -194 -184 -39 -86 -48 -178 -29 -292 9 -52 28 -129 43 -170 14 -41 27 -83 27 -92 1 -10 4 -18 8 -18 4 0 24 -30 44 -68 21 -37 40 -69 44 -72 3 -3 23 -26 43 -52 72 -89 250 -208 313 -208 31 0 174 75 246 129 93 71 210 197 279 302 64 98 71 114 41 104 -29 -9 -112 13 -154 42 -46 32 -109 125 -132 193 -16 50 -16 52 5 106 78 191 291 265 413 143 22 -21 40 -39 42 -39 3 0 12 47 29 157 l13 82 -141 -6 c-164 -7 -173 -3 -163 69 5 36 2 45 -24 70 -36 37 -70 35 -80 -5 -8 -31 -27 -57 -40 -57 -5 0 -6 27 -3 59 l7 60 -42 11 c-66 17 -85 11 -91 -30 -4 -20 -10 -41 -14 -48 -13 -22 -28 0 -23 33 3 17 2 37 -2 44 -10 16 -69 22 -108 10z m91 -275 c20 -19 20 -5 -8 -121 -14 -54 -30 -124 -36 -155 -6 -32 -15 -58 -20 -58 -19 0 -79 227 -80 298 0 37 22 52 52 33 15 -9 22 -9 34 4 20 19 38 19 58 -1z m-378 -140 c45 -21 101 -85 129 -146 22 -48 23 -52 8 -102 -8 -28 -29 -78 -47 -111 -40 -73 -102 -112 -161 -101 -78 15 -144 107 -153 213 -8 109 36 210 109 246 43 21 72 21 115 1z m514 -450 c32 -38 -35 -108 -80 -84 -27 14 -25 46 5 75 28 29 57 32 75 9z m-288 -21 c23 -21 20 -71 -5 -79 -25 -8 -71 26 -75 56 -7 45 39 58 80 23z m-327 -64 c9 -27 -16 -73 -41 -77 -46 -7 -55 62 -12 92 24 17 45 11 53 -15z m168 -20 c31 -36 35 -72 8 -100 -15 -16 -23 -18 -45 -9 -51 19 -68 116 -24 133 25 10 34 7 61 -24z m595 8 c30 -23 5 -99 -40 -118 -39 -16 -62 -2 -66 38 -6 58 64 111 106 80z"/>
    <path d="M3092 1725 c-17 -37 -14 -45 4 -12 9 16 14 31 11 33 -2 2 -9 -7 -15 -21z"/>
    <path d="M2590 1617 c-118 -27 -211 -93 -254 -180 l-27 -52 21 -17 c70 -57 267 -84 337 -45 43 23 68 62 68 108 l0 37 67 4 c101 5 137 50 84 103 -43 43 -196 65 -296 42z"/>
    <path d="M3007 1545 c-24 -50 -20 -58 4 -12 11 22 19 41 17 43 -3 2 -12 -12 -21 -31z"/>
    <path d="M3020 1447 c0 -2 15 -16 33 -33 l32 -29 -29 33 c-28 30 -36 37 -36 29z"/>
    <path
      d="M2807 1413 c-19 -18 -5 -67 31 -108 116 -132 63 -336 -93 -360 -39 -7 -40 -8 -40 -46 0 -36 2 -39 33 -45 45 -9 124 1 161 20 54 28 76 72 77 154 1 64 4 75 24 89 28 19 60 88 60 128 0 39 -31 104 -61 131 -13 12 -39 26 -58 33 -37 12 -124 15 -134 4z"/>
    <path d="M795 1320 c9 -16 18 -30 21 -30 2 0 -2 14 -11 30 -9 17 -18 30 -21 30 -2 0 2 -13 11 -30z"/>
    <path d="M2213 1284 c-91 -97 -106 -221 -36 -305 19 -23 27 -43 28 -74 1 -49 21 -83 71 -121 27 -21 40 -25 52 -18 73 44 85 320 20 449 -21 42 -76 105 -91 105 -5 0 -25 -16 -44 -36z"/>
    <path d="M2737 1272 c-24 -15 -26 -21 -20 -47 17 -64 9 -129 -19 -172 l-27 -41 26 -6 c59 -16 126 33 139 100 8 42 -10 118 -37 156 -23 32 -24 32 -62 10z"/>
    <path d="M2414 1242 c28 -96 48 -257 45 -352 l-3 -65 38 -9 c25 -5 51 -5 76 3 69 20 89 112 41 185 l-19 28 30 27 c24 22 32 37 35 77 8 86 1 94 -97 99 -47 2 -100 9 -118 14 -29 9 -32 8 -28 -7z"/>
    <path d="M3100 1153 c0 -6 -12 -28 -26 -49 -15 -21 -19 -32 -10 -24 21 17 49 70 42 78 -3 3 -6 1 -6 -5z"/>
    <path d="M1060 917 c0 -2 15 -16 33 -33 l32 -29 -29 33 c-28 30 -36 37 -36 29z"/>
    <path d="M2642 774 c-45 -31 -105 -38 -172 -20 -30 8 -57 13 -58 11 -2 -2 1 -20 8 -39 36 -111 182 -149 257 -68 14 15 32 26 40 24 42 -9 113 38 127 85 7 21 5 21 -46 16 -29 -3 -69 -1 -88 4 -29 8 -40 6 -68 -13z"/>
    <path d="M2880 722 c0 -6 -14 -28 -32 -49 -29 -34 -29 -35 -4 -13 31 28 50 59 42 68 -3 3 -6 0 -6 -6z"/>
    <path d="M1329 686 c13 -16 51 -41 51 -33 0 2 -15 14 -32 27 -21 15 -28 17 -19 6z"/>
    <path d="M2714 609 c-3 -6 -20 -19 -38 -30 -17 -10 -25 -19 -19 -19 13 0 83 59 71 60 -4 0 -10 -5 -14 -11z"/>
  </g>
  <g id="layer103" fill="#dcdcdc" stroke="none">
    <path d="M1295 3049 c-22 -23 -49 -45 -60 -49 -14 -6 -15 -9 -5 -9 9 -1 38 22 65 49 27 28 47 50 44 50 -3 0 -23 -18 -44 -41z"/>
    <path d="M2283 3063 c20 -2 54 -2 75 0 20 2 3 4 -38 4 -41 0 -58 -2 -37 -4z"/>
    <path d="M2681 2996 c10 -9 89 -46 89 -41 0 5 -75 45 -86 45 -4 0 -5 -2 -3 -4z"/>
    <path d="M900 2905 c-24 -25 -42 -45 -39 -45 3 0 25 20 49 45 24 25 42 45 39 45 -3 0 -25 -20 -49 -45z"/>
    <path d="M2800 2937 c0 -3 17 -17 37 -33 20 -15 33 -23 29 -16 -8 13 -66 56 -66 49z"/>
    <path d="M2910 2845 c19 -19 36 -35 39 -35 3 0 -10 16 -29 35 -19 19 -36 35 -39 35 -3 0 10 -16 29 -35z"/>
    <path d="M2999 2735 c5 -11 17 -29 26 -40 l16 -20 -10 20 c-5 11 -17 29 -26 40 l-16 20 10 -20z"/>
    <path d="M621 2686 c-28 -30 -51 -58 -51 -62 0 -4 1 -5 3 -3 2 2 27 30 57 62 29 31 51 57 48 57 -3 0 -28 -24 -57 -54z"/>
    <path
      d="M1575 2619 c-108 -16 -189 -63 -229 -132 -32 -54 -38 -110 -13 -115 26 -5 47 16 47 48 0 15 7 33 15 40 13 11 15 8 15 -19 0 -26 4 -31 25 -31 13 0 36 5 50 12 20 9 25 18 25 50 0 34 6 43 27 36 4 -2 6 -18 4 -35 l-3 -33 55 0 c76 0 87 6 87 47 0 44 21 40 36 -7 12 -37 41 -53 89 -48 25 2 31 8 33 31 4 36 26 30 30 -9 4 -35 18 -53 50 -65 29 -11 52 4 52 33 0 38 25 11 31 -33 4 -24 15 -66 25 -94 9 -27 19 -56 20 -62 2 -7 13 -13 24 -13 16 0 20 6 20 34 0 51 -27 180 -44 214 -28 54 -122 117 -212 141 -58 16 -189 21 -259 10z"/>
    <path
      d="M1563 2389 c-31 -9 -33 -13 -33 -54 0 -56 -23 -61 -36 -7 -8 32 -12 37 -34 33 -54 -7 -63 -19 -57 -73 5 -43 4 -49 -11 -46 -9 2 -23 18 -31 36 -17 37 -40 41 -66 12 -18 -19 -18 -30 1 -113 6 -24 2 -29 -28 -42 -20 -8 -47 -16 -62 -19 -67 -12 -152 -93 -194 -184 -39 -86 -48 -178 -29 -292 9 -52 28 -129 43 -170 14 -41 27 -83 27 -92 1 -10 4 -18 8 -18 4 0 24 -30 44 -68 21 -37 40 -69 44 -72 3 -3 23 -26 43 -52 72 -89 250 -208 313 -208 31 0 174 75 246 129 93 71 210 197 279 302 64 98 71 114 41 104 -29 -9 -112 13 -154 42 -46 32 -109 125 -132 193 -16 50 -16 52 5 106 78 191 291 265 413 143 22 -21 40 -39 42 -39 3 0 12 47 29 157 l13 82 -141 -6 c-164 -7 -173 -3 -163 69 5 36 2 45 -24 70 -36 37 -70 35 -80 -5 -8 -31 -27 -57 -40 -57 -5 0 -6 27 -3 59 l7 60 -42 11 c-66 17 -85 11 -91 -30 -4 -20 -10 -41 -14 -48 -13 -22 -28 0 -23 33 3 17 2 37 -2 44 -10 16 -69 22 -108 10z m91 -275 c20 -19 20 -5 -8 -121 -14 -54 -30 -124 -36 -155 -6 -32 -15 -58 -20 -58 -19 0 -79 227 -80 298 0 37 22 52 52 33 15 -9 22 -9 34 4 20 19 38 19 58 -1z m-378 -140 c45 -21 101 -85 129 -146 22 -48 23 -52 8 -102 -8 -28 -29 -78 -47 -111 -40 -73 -102 -112 -161 -101 -78 15 -144 107 -153 213 -8 109 36 210 109 246 43 21 72 21 115 1z m514 -450 c32 -38 -35 -108 -80 -84 -27 14 -25 46 5 75 28 29 57 32 75 9z m-288 -21 c23 -21 20 -71 -5 -79 -25 -8 -71 26 -75 56 -7 45 39 58 80 23z m-327 -64 c9 -27 -16 -73 -41 -77 -46 -7 -55 62 -12 92 24 17 45 11 53 -15z m168 -20 c31 -36 35 -72 8 -100 -15 -16 -23 -18 -45 -9 -51 19 -68 116 -24 133 25 10 34 7 61 -24z m595 8 c30 -23 5 -99 -40 -118 -39 -16 -62 -2 -66 38 -6 58 64 111 106 80z"/>
    <path d="M3092 1725 c-17 -37 -14 -45 4 -12 9 16 14 31 11 33 -2 2 -9 -7 -15 -21z"/>
    <path d="M3007 1545 c-24 -50 -20 -58 4 -12 11 22 19 41 17 43 -3 2 -12 -12 -21 -31z"/>
    <path d="M3020 1447 c0 -2 15 -16 33 -33 l32 -29 -29 33 c-28 30 -36 37 -36 29z"/>
    <path d="M795 1320 c9 -16 18 -30 21 -30 2 0 -2 14 -11 30 -9 17 -18 30 -21 30 -2 0 2 -13 11 -30z"/>
    <path d="M3100 1153 c0 -6 -12 -28 -26 -49 -15 -21 -19 -32 -10 -24 21 17 49 70 42 78 -3 3 -6 1 -6 -5z"/>
    <path d="M1060 917 c0 -2 15 -16 33 -33 l32 -29 -29 33 c-28 30 -36 37 -36 29z"/>
    <path d="M2880 722 c0 -6 -14 -28 -32 -49 -29 -34 -29 -35 -4 -13 31 28 50 59 42 68 -3 3 -6 0 -6 -6z"/>
    <path d="M1329 686 c13 -16 51 -41 51 -33 0 2 -15 14 -32 27 -21 15 -28 17 -19 6z"/>
    <path d="M2714 609 c-3 -6 -20 -19 -38 -30 -17 -10 -25 -19 -19 -19 13 0 83 59 71 60 -4 0 -10 -5 -14 -11z"/>
  </g>

</svg>
