<!DOCTYPE svg PUBLIC "-//W3C//DTD SVG 20010904//EN" "http://www.w3.org/TR/2001/REC-SVG-20010904/DTD/svg10.dtd">
<svg version="1.0" xmlns="http://www.w3.org/2000/svg" width="460px" height="412px" viewBox="0 0 4600 4120" preserveAspectRatio="xMidYMid meet">
  <g id="layer101" fill="#ff6347" stroke="none">
    <path
      d="M649 3489 c-20 -12 -45 -35 -55 -53 -18 -30 -19 -67 -19 -1056 l0 -1025 32 -66 c42 -86 138 -178 220 -210 47 -19 77 -23 163 -24 100 0 109 2 175 34 126 62 213 178 235 312 5 36 10 234 10 453 l0 388 34 34 c29 29 41 34 81 34 40 0 52 -5 81 -34 l34 -34 0 -234 c0 -308 16 -372 121 -483 61 -65 128 -102 220 -121 206 -43 417 82 479 284 19 61 20 94 20 629 0 502 2 569 16 599 40 84 159 83 207 -1 9 -15 13 -311 17 -1110 l5 -1090 26 -55 c80 -168 230 -258 414 -248 69 4 95 10 151 38 127 62 214 182 234 322 5 35 10 470 10 967 l0 903 34 34 c29 29 41 34 80 34 36 0 52 -6 78 -29 l33 -29 5 -580 c5 -571 5 -581 26 -609 64 -86 186 -88 249 -5 20 27 20 40 17 986 -2 888 -4 962 -20 989 -56 96 -188 100 -249 8 -22 -32 -23 -43 -23 -235 l0 -201 -120 0 -120 0 0 189 c0 169 -2 194 -20 231 -53 110 -206 111 -259 2 l-21 -43 0 -1303 0 -1303 -34 -34 c-29 -29 -41 -34 -81 -34 -40 0 -52 5 -80 33 l-32 32 -5 1305 c-4 1267 -5 1307 -24 1345 -25 50 -61 76 -115 82 -55 5 -105 -19 -136 -66 -19 -27 -23 -48 -23 -106 l0 -73 -42 10 c-43 10 -158 5 -190 -7 -16 -6 -18 1 -18 73 0 73 -3 84 -27 113 -66 78 -178 76 -236 -5 l-22 -31 -5 -827 -5 -826 -24 -26 c-14 -15 -42 -31 -62 -37 -31 -10 -43 -9 -76 7 -77 38 -73 -10 -73 887 0 716 -2 803 -16 833 -44 93 -166 110 -240 33 l-29 -30 -5 -411 -5 -411 -123 -1 -122 -1 0 401 c0 400 0 401 -23 435 -63 94 -199 88 -249 -12 -16 -31 -18 -72 -18 -420 0 -212 -3 -658 -7 -990 l-6 -604 -33 -32 c-27 -28 -39 -33 -79 -33 -40 0 -52 5 -81 34 l-34 34 0 983 c0 979 0 983 -21 1026 -37 76 -127 104 -200 62z"/>
  </g>
  <g id="layer102" fill="#1e90ff" stroke="none">
    <path
      d="M2503 3265 c-129 -29 -228 -109 -286 -233 l-32 -67 -5 -600 c-3 -330 -9 -608 -13 -617 -15 -30 -60 -52 -109 -52 -41 -1 -52 4 -80 32 l-33 32 -5 273 -5 273 -33 66 c-89 181 -274 269 -474 227 -119 -25 -229 -112 -284 -224 l-29 -60 -5 -445 c-6 -499 -4 -486 -78 -517 -45 -19 -96 -6 -133 33 l-24 26 -5 618 c-5 605 -5 619 -26 646 -36 49 -70 68 -122 68 -60 0 -108 -27 -134 -74 -18 -33 -18 -64 -16 -675 l3 -640 39 -73 c86 -161 235 -243 414 -228 133 11 265 101 331 225 48 92 55 167 49 568 -4 206 -2 369 3 388 25 91 164 107 212 25 14 -24 17 -60 17 -232 0 -111 5 -234 10 -271 37 -254 283 -412 530 -341 116 33 226 134 270 246 l25 63 5 590 c5 542 6 592 23 616 32 48 89 61 152 35 68 -29 65 29 65 -1137 0 -732 3 -1064 11 -1100 13 -62 67 -156 115 -203 119 -115 325 -148 469 -75 110 57 200 166 226 276 5 21 9 454 9 963 0 1040 -5 976 73 1014 33 16 45 17 76 7 20 -6 48 -22 62 -37 l24 -26 5 -571 c4 -413 8 -579 17 -599 18 -41 80 -78 130 -78 63 0 109 26 133 76 20 41 21 56 18 636 l-3 593 -33 68 c-67 135 -190 221 -332 233 -206 17 -377 -88 -442 -274 -19 -55 -20 -84 -18 -989 1 -1015 3 -979 -55 -1017 -34 -22 -93 -26 -127 -8 -56 30 -53 -33 -58 1147 l-5 1090 -22 55 c-80 195 -285 302 -490 255z"/>
  </g>

</svg>
