<?xml version="1.0"?>
	<svg xmlns="http://www.w3.org/2000/svg" xmlns:xlink="http://www.w3.org/1999/xlink" version="1.1" viewBox="0 0 1400 1400">
	  <g id="layer101" stroke="none">
		<path d="M261 1197 c-57 -28 -91 -141 -92 -304 0 -158 25 -240 95 -300 71 -63 225 -97 381 -84 71 5 80 8 80 26 0 19 -9 20 -122 27 -264 14 -348 70 -373 247 -17 119 16 309 59 335 22 14 95 -44 174 -139 16 -20 16 -21 -16 -17 -42 5 -68 -23 -74 -81 -5 -44 -6 -45 -50 -50 -50 -5 -83 -30 -83 -63 0 -32 45 -64 90 -64 36 0 38 -1 43 -41 10 -76 66 -104 106 -53 12 15 21 41 21 60 0 31 3 34 30 34 50 0 90 26 90 59 0 37 -29 61 -79 68 -39 5 -41 7 -41 40 0 19 -5 43 -10 53 -8 16 0 14 47 -11 55 -29 63 -31 148 -27 127 6 174 29 265 129 72 80 121 116 141 103 40 -24 76 -222 60 -324 -5 -30 -9 -43 -10 -29 -1 35 -31 59 -73 59 -42 0 -68 -25 -68 -67 0 -38 27 -63 70 -63 18 0 42 7 52 17 24 22 23 7 -5 -41 -45 -79 -106 -108 -277 -133 l-55 -8 -3 -40 c-4 -57 -22 -176 -28 -187 -3 -5 -35 18 -70 52 -74 69 -112 78 -140 35 -24 -36 -41 -252 -22 -272 31 -31 45 -6 52 95 11 156 8 153 81 82 73 -69 109 -78 143 -35 19 24 24 45 38 166 l6 56 62 6 c80 8 168 41 212 80 70 60 95 142 95 300 -1 228 -60 338 -164 307 -38 -11 -134 -96 -185 -163 -26 -36 -118 -69 -192 -70 -53 0 -140 31 -140 51 0 20 -135 152 -173 171 -50 24 -63 25 -96 8z m193 -321 c7 -53 8 -54 44 -61 87 -15 92 -28 13 -39 l-50 -7 -7 -50 c-11 -79 -24 -74 -39 13 -7 36 -8 37 -61 44 -85 10 -81 26 9 39 44 7 45 8 52 52 13 90 29 94 39 9z m641 -86 c8 -13 -20 -24 -41 -16 -20 8 -9 26 16 26 10 0 22 -5 25 -10z" />
		<path d="M907 952 c-22 -25 -21 -75 1 -95 25 -23 85 -22 105 1 22 25 21 75 -1 95 -25 23 -85 22 -105 -1z m78 -42 c8 -13 -20 -24 -41 -16 -20 8 -9 26 16 26 10 0 22 -5 25 -10z" />
		<path d="M797 832 c-22 -25 -21 -75 1 -95 25 -23 85 -22 105 1 22 25 21 75 -1 95 -25 23 -85 22 -105 -1z m78 -42 c8 -13 -20 -24 -41 -16 -20 8 -9 26 16 26 10 0 22 -5 25 -10z" />
		<path d="M907 712 c-22 -25 -21 -75 1 -95 25 -23 85 -22 105 1 22 25 21 75 -1 95 -25 23 -85 22 -105 -1z m78 -42 c8 -13 -20 -24 -41 -16 -20 8 -9 26 16 26 10 0 22 -5 25 -10z" />
	  </g>
	</svg>
