<?xml version="1.0"?>
	<svg xmlns="http://www.w3.org/2000/svg" xmlns:xlink="http://www.w3.org/1999/xlink" version="1.1" viewBox="0 0 1400 1400">
	  <g id="layer101" stroke="none">
		<path d="M244 1106 l-34 -34 2 -334 c3 -288 5 -333 18 -333 13 0 16 44 20 315 3 173 9 323 14 333 4 10 18 23 30 29 18 9 19 9 10 -3 -17 -21 -23 -127 -25 -429 l-2 -275 68 -35 c62 -32 75 -35 154 -35 74 0 94 4 140 28 l54 28 62 -60 c63 -60 196 -136 222 -127 9 4 13 26 13 68 l0 63 46 30 46 30 -1 345 c-1 189 2 341 6 336 4 -4 10 -150 13 -324 4 -273 7 -317 20 -317 13 0 15 45 18 333 l2 334 -34 34 -34 34 -397 0 -397 0 -34 -34z m406 -11 c0 -2 -18 -14 -41 -25 -64 -33 -127 -36 -209 -10 -38 12 -70 26 -70 31 0 5 72 9 160 9 88 0 160 -2 160 -5z m374 -4 c6 -9 -59 -37 -110 -47 -35 -7 -128 17 -159 40 -18 14 -7 15 122 16 78 0 144 -4 147 -9z m-376 -683 c-13 -10 -47 -25 -77 -34 -64 -19 -119 -14 -192 17 -42 19 -50 25 -45 43 3 12 6 28 6 37 0 14 5 14 53 -2 59 -21 150 -23 217 -6 36 10 46 17 48 36 3 22 1 23 -30 17 -90 -17 -173 -18 -212 -2 -21 9 -47 16 -57 16 -14 0 -19 7 -19 29 l0 29 50 -19 c95 -36 251 -13 258 39 4 26 -9 28 -68 7 -54 -19 -121 -19 -167 0 -19 8 -44 15 -54 15 -18 0 -19 11 -19 190 0 105 3 190 6 190 3 0 31 -7 62 -16 67 -20 166 -13 221 15 l36 19 3 -301 2 -302 -22 -17z m242 579 c36 0 82 7 103 16 l37 16 0 -309 c0 -302 0 -310 -21 -320 -20 -11 -20 -11 -18 233 1 135 -1 249 -4 254 -4 6 -31 13 -61 16 -29 3 -69 13 -87 22 -34 17 -119 93 -119 106 0 4 24 -2 53 -13 34 -14 75 -21 117 -21z m-10 -148 c38 -7 60 -17 60 -25 0 -38 -145 -8 -161 33 -7 19 -12 21 -34 13 -24 -9 -25 -8 -25 25 l0 34 50 -34 c31 -21 74 -39 110 -46z m-75 -80 c28 -10 69 -16 93 -15 l42 2 0 -35 c0 -20 -4 -31 -8 -25 -4 5 -25 11 -47 11 -54 2 -111 28 -118 53 -3 13 -10 18 -21 14 -9 -3 -16 -2 -16 4 0 5 -3 25 -6 43 l-6 34 19 -35 c14 -26 30 -38 68 -51z m-14 -100 c28 -15 121 -20 136 -7 10 8 13 1 13 -33 0 -24 -4 -39 -8 -33 -4 5 -25 11 -47 11 -54 2 -111 28 -118 53 -6 23 -3 24 24 9z m72 -114 c28 -2 57 1 64 7 10 8 13 0 13 -38 0 -27 -4 -44 -8 -38 -4 5 -25 11 -47 11 -54 2 -111 28 -118 53 -3 13 -10 18 -21 14 -11 -4 -16 0 -16 14 0 20 0 20 41 0 22 -10 64 -21 92 -23z m0 -110 c28 -2 57 1 64 7 10 8 13 -9 13 -91 0 -55 -3 -101 -8 -101 -16 0 -114 73 -157 117 -34 36 -45 55 -45 79 l0 32 41 -20 c22 -10 64 -21 92 -23z" />
		<path d="M372 865 c4 -24 49 -34 148 -33 84 0 114 9 118 33 3 19 -4 20 -133 20 -130 0 -136 0 -133 -20z" />
		<path d="M362 779 c4 -33 72 -52 160 -45 87 8 118 20 118 47 0 20 -3 21 -47 13 -60 -11 -135 -11 -191 0 -42 9 -44 8 -40 -15z" />
		<path d="M362 689 c5 -37 79 -53 181 -39 91 11 97 14 97 42 0 19 -4 19 -62 12 -78 -10 -110 -10 -171 0 -47 8 -49 8 -45 -15z" />
	  </g>
	</svg>
