<?xml version="1.0"?>
	<svg xmlns="http://www.w3.org/2000/svg" xmlns:xlink="http://www.w3.org/1999/xlink" version="1.1" viewBox="0 0 1400 1400">
	  <g id="layer101" stroke="none">
		<path d="M365 1121 c-111 -6 -120 -7 -120 -26 0 -19 8 -20 123 -23 l123 -3 15 -34 c8 -19 14 -37 14 -39 0 -3 -62 -7 -137 -8 -130 -3 -138 -4 -138 -23 0 -19 8 -20 122 -23 l121 -3 11 -29 10 -29 -132 -3 c-124 -3 -132 -4 -132 -23 0 -19 8 -20 141 -23 l142 -3 12 -44 c10 -36 17 -45 35 -45 18 0 24 8 31 43 l9 42 66 3 67 3 11 -32 c6 -18 11 -34 11 -35 0 -2 -22 -4 -48 -4 -35 0 -54 -5 -66 -19 -10 -11 -25 -17 -37 -14 -11 3 -28 -2 -39 -12 -18 -16 -19 -15 -35 14 l-16 32 -142 -3 c-134 -3 -142 -4 -142 -23 0 -19 8 -20 129 -25 l129 -5 16 -42 c17 -47 47 -58 68 -25 8 13 20 18 40 15 22 -3 32 2 48 26 18 28 25 31 71 31 51 0 63 -10 64 -52 0 -5 -34 -8 -75 -8 l-75 0 -29 -52 c-16 -29 -37 -66 -46 -83 l-17 -30 -32 80 -32 80 -130 0 c-122 0 -129 -1 -129 -20 0 -19 8 -20 112 -23 l111 -3 15 -37 15 -37 -127 -5 c-118 -5 -126 -6 -126 -25 0 -19 8 -20 138 -23 137 -3 138 -3 147 -28 6 -14 10 -27 10 -29 0 -3 -66 -6 -147 -7 -140 -3 -148 -4 -148 -23 0 -19 8 -20 134 -25 l133 -5 20 -53 c17 -46 22 -52 49 -52 26 0 33 7 56 55 l27 55 235 2 c228 3 236 4 236 23 0 19 -8 20 -142 23 l-141 3 26 29 c27 29 29 29 142 32 107 3 115 4 115 23 0 19 -8 20 -132 23 -73 1 -133 5 -133 7 0 3 9 19 20 37 l20 33 112 5 c105 5 113 6 113 25 0 19 -8 20 -122 23 -68 1 -123 4 -123 7 0 2 4 15 10 29 9 25 12 25 122 28 105 3 113 4 113 23 0 19 -8 20 -102 23 l-102 3 16 34 16 34 86 3 c78 3 86 5 86 23 0 19 -7 20 -105 20 l-104 0 -35 -82 c-19 -45 -37 -80 -40 -77 -4 3 -20 40 -36 82 l-31 77 -56 3 -56 3 11 29 c10 27 16 30 53 30 40 0 42 -1 62 -50 29 -69 55 -69 84 0 l20 49 117 3 c108 3 116 4 116 23 0 19 -8 20 -133 23 l-134 3 -11 -31 c-14 -38 -20 -38 -34 0 -11 30 -12 30 -87 30 -55 0 -78 -4 -82 -14 -3 -8 -14 -11 -28 -9 -19 4 -26 -1 -35 -28 -6 -17 -11 -40 -11 -50 0 -31 -16 -21 -27 16 -9 28 -8 35 2 35 8 0 33 28 57 63 43 61 44 62 95 65 48 3 53 1 78 -33 34 -44 55 -44 93 0 l31 34 113 3 c105 3 113 4 113 23 0 19 -8 20 -124 23 -124 3 -124 3 -153 -25 l-29 -28 -21 28 c-19 25 -24 27 -99 27 l-79 0 -32 -49 -33 -49 -20 51 c-24 59 -10 56 -180 48z m444 -568 c10 -29 21 -43 33 -43 20 0 24 -15 7 -25 -6 -4 -17 2 -25 14 -13 18 -25 21 -95 21 l-79 0 20 41 c21 40 21 40 72 37 50 -3 52 -4 67 -45z m-7 -113 l17 -30 -95 0 -95 0 -23 -52 -23 -52 -10 30 c-6 16 -14 37 -18 47 -5 13 -2 17 14 17 12 0 21 5 21 10 0 6 7 22 16 35 15 23 22 25 98 25 80 0 81 -1 98 -30z" />
	  </g>
	</svg>
