<?xml version="1.0"?>
	<svg xmlns="http://www.w3.org/2000/svg" xmlns:xlink="http://www.w3.org/1999/xlink" version="1.1" viewBox="0 0 1400 1400">
	  <g id="layer101" stroke="none">
		<path d="M765 1202 c-3 -3 -5 -16 -5 -29 0 -18 6 -23 24 -23 13 0 26 -7 30 -15 3 -8 17 -15 31 -15 l25 0 0 -148 0 -148 -34 -17 c-40 -18 -79 -68 -94 -117 -6 -19 -12 -91 -14 -160 l-3 -125 170 0 170 0 -3 125 c-2 69 -8 141 -14 160 -15 49 -54 99 -94 117 l-34 17 0 148 c0 142 1 148 20 148 11 0 23 7 26 15 4 8 15 15 25 15 22 0 37 27 23 40 -10 9 -240 20 -249 12z m191 -476 c42 -42 44 -57 5 -50 -22 5 -43 -1 -77 -20 -50 -28 -62 -30 -82 -17 -19 12 7 71 43 99 39 31 71 28 111 -12z m9 -106 c4 -6 -5 -10 -20 -10 -15 0 -24 4 -20 10 3 6 12 10 20 10 8 0 17 -4 20 -10z m19 -84 c17 -15 26 -34 26 -55 l0 -31 -115 0 -115 0 0 38 c0 37 1 38 34 34 21 -2 48 4 72 17 51 26 68 26 98 -3z" />
		<path d="M311 1187 c-22 -27 -32 -126 -33 -327 -1 -231 10 -310 48 -344 13 -12 33 -29 44 -38 18 -16 20 -30 20 -121 0 -63 -4 -107 -11 -114 -7 -7 -9 -19 -6 -27 9 -23 165 -23 174 0 3 8 1 20 -6 27 -7 7 -11 51 -11 114 0 89 3 105 19 119 64 55 69 63 82 120 8 38 12 132 11 264 -1 201 -11 300 -33 327 -16 19 -282 19 -298 0z m224 -48 c4 -6 13 -8 20 -5 17 6 22 -34 31 -223 l7 -154 -66 6 c-69 6 -148 39 -180 75 -17 18 -18 32 -13 109 12 166 16 192 31 187 7 -3 16 -1 20 5 3 6 37 11 75 11 38 0 72 -5 75 -11z m-82 -415 c28 -8 69 -14 90 -14 20 0 37 -4 37 -9 0 -4 -10 -6 -23 -4 -19 4 -24 -2 -35 -41 -6 -26 -12 -54 -12 -64 0 -9 -10 -22 -22 -27 -27 -12 -38 -55 -13 -55 12 0 14 -4 5 -19 -5 -11 -10 -69 -10 -130 0 -67 -4 -111 -10 -111 -6 0 -10 44 -10 111 0 96 -3 116 -21 145 -11 19 -27 34 -35 34 -7 0 -20 10 -28 23 -14 21 -17 39 -31 166 l-6 53 36 -22 c19 -12 59 -28 88 -36z m117 -123 c0 -22 -35 -69 -45 -59 -4 3 3 16 14 27 12 12 21 28 21 36 0 8 2 15 5 15 3 0 5 -9 5 -19z" />
		<path d="M353 175 c-11 -29 12 -36 113 -33 91 3 99 5 99 23 0 19 -8 20 -103 23 -86 2 -103 0 -109 -13z" />
	  </g>
	</svg>
