<?xml version="1.0"?>
	<svg xmlns="http://www.w3.org/2000/svg" xmlns:xlink="http://www.w3.org/1999/xlink" version="1.1" viewBox="0 0 1400 1400">
	  <g id="layer101" stroke="none">
		<path d="M263 1200 c-56 -33 -57 -43 -65 -330 -4 -146 -10 -302 -13 -346 -11 -130 20 -171 160 -214 39 -12 167 -53 285 -92 335 -110 390 -107 455 26 19 39 38 90 41 113 6 38 4 43 -17 53 -13 6 -170 51 -349 100 l-325 89 355 -2 355 -2 3 263 c3 291 0 305 -61 342 -30 19 -53 20 -412 20 -359 0 -382 -1 -412 -20z m802 -65 c24 -23 25 -29 25 -160 l0 -135 -199 0 c-109 0 -219 3 -245 6 l-48 7 134 56 c119 51 133 59 133 81 0 22 -14 30 -135 82 -74 32 -143 58 -152 58 -15 0 -18 -9 -18 -48 0 -27 -3 -90 -6 -140 l-7 -92 -143 0 -144 0 0 132 c0 121 2 134 22 155 l21 23 369 0 369 0 24 -25z m-362 -107 c42 -17 77 -34 77 -37 0 -7 -174 -81 -179 -76 -6 6 11 145 18 145 3 0 41 -14 84 -32z m-311 -260 c13 -18 37 -50 52 -70 l28 -38 -106 0 -106 0 0 70 0 70 54 0 c49 0 56 -3 78 -32z m199 -38 l36 -70 -46 0 c-45 1 -47 2 -91 62 -25 34 -46 65 -48 70 -2 4 23 8 55 8 l58 0 36 -70z m177 -5 l39 -75 -58 0 -59 0 -35 70 c-19 38 -35 72 -35 75 0 3 24 5 54 5 l55 0 39 -75z m179 -5 l31 -70 -57 0 -57 0 -32 65 c-18 36 -32 68 -32 70 0 3 26 5 58 5 l58 0 31 -70z m143 0 c0 -70 0 -70 -27 -70 -25 1 -32 9 -60 70 l-32 70 59 0 60 0 0 -70z m-751 -159 l64 -17 -72 -57 c-40 -31 -77 -54 -82 -51 -10 6 -12 127 -2 137 9 10 20 8 92 -12z m241 -71 c-1 -8 -163 -123 -180 -127 -17 -4 -88 18 -92 30 -2 4 33 36 77 70 l80 64 58 -16 c31 -8 57 -18 57 -21z m172 -43 l31 -13 -69 -55 c-108 -88 -101 -85 -178 -63 -36 10 -66 21 -66 24 0 3 40 33 88 68 94 68 113 72 194 39z m169 -44 c16 -3 29 -9 29 -13 0 -4 -32 -34 -72 -66 -113 -93 -103 -88 -154 -74 -24 7 -47 16 -49 20 -3 5 34 40 82 79 69 56 93 70 112 65 13 -3 36 -8 52 -11z m139 -46 c0 -29 -33 -107 -55 -131 -18 -19 -34 -26 -63 -26 -54 0 -103 11 -100 21 2 5 41 41 88 79 80 66 130 87 130 57z" />
	  </g>
	</svg>
