<?xml version="1.0"?>
<svg xmlns="http://www.w3.org/2000/svg" xmlns:xlink="http://www.w3.org/1999/xlink" viewBox="0 0 344 344">
            <!-- Designed by Metafizzy, 2017 -->
            <title>kick-flip-stego-logo</title>
            <defs>
              <path id="stego-body" d="M200,72a128,128,0,0,1,119,80h0l-15,48H264l-11-39a23,23,0,0,0-22-17h0a23,23,0,0,0-23,23v33l-56,80a48,48,0,0,0,48,48,128,128,0,1,1,0-256Z" fill="none"></path>
              <clipPath id="stego-body-clip">
                <use xlink:href="#stego-body"></use>
              </clipPath>
              <clipPath id="arm-clip">
                <path fill="none" d="M136 176l56-56V64H72v112h64z"></path>
              </clipPath>
            </defs>
            <path fill="#FFBF31" stroke="#30353D" stroke-width="16" d="M192 72l-16-16 24-40 24 40-16 16m-65 13l6-22-41-22v46l22 6m-37 36l-6-22H41l23 41 22-6m-14 50l-16-16-40 24 40 24 16-16m17 56l-22-6-12 26 29 2 6-22M264 89l22-6-2-29-26 13 6 22m-96 167l56 16 32-40h-16l-56-16 M305 127l2-12 18-2-9 16-11-2M127 305l2 11-16 9 2-18 12-2"></path>
            <g clip-path="url(#stego-body-clip)">
              <circle cx="200" cy="200" r="128" fill="#1e90ff"></circle>
              <circle cx="200" cy="200" r="88" fill="#FF8B00"></circle>
              <circle cx="200" cy="200" r="48" fill="#FFBF31"></circle>
            </g>
            <use xlink:href="#stego-body" stroke="#30353D" stroke-width="16"></use>
            <path fill="#FFBF31" stroke="#30353D" stroke-width="16" d="M152 208l-40 8 24 72h32l16-32-8-24"></path>
          <path fill="#30353D" d="M277 140a12 12 0 0 1 0 24z"></path>
            <g clip-path="url(#arm-clip)">
              <path fill="#FF8B00" stroke="#30353D" stroke-width="16" d="M184 136L88 88v48l64 32"></path>
            </g>
            <path fill="none" stroke="#30353D" stroke-width="16" d="M208 304h20l76-32 16-16"></path>
            <circle cx="248" cy="320" r="8" fill="#30353D"></circle>
            <circle cx="304" cy="296" r="8" fill="#30353D"></circle>
          </svg>
