<?xml version="1.0"?>
<svg xmlns="http://www.w3.org/2000/svg" xmlns:xlink="http://www.w3.org/1999/xlink" version="1.1" id="Capa_1" x="0px" y="0px" viewBox="0 0 512 512" style="enable-background:new 0 0 512 512;" xml:space="preserve" width="512px" height="512px" class=""><g><g>
	<g>
		<path d="M353.881,213.241c-4.439-2.768-9.946-2.973-14.59-0.659l-60,30C274.208,245.131,271,250.316,271,256    c0,24.814,20.186,45,45,45c24.814,0,45-20.186,45-45v-30C361,220.8,358.305,215.98,353.881,213.241z M331,256    c0,8.276-6.724,15-15,15c-5.303,0-9.961-2.754-12.627-6.914L331,250.272V256z" data-original="#000000" class="active-path" data-old_color="##33363" fill="#30353D"/>
	</g>
</g><g>
	<g>
		<path d="M232.709,242.582l-60-30c-4.644-2.3-10.166-2.08-14.59,0.659C153.695,215.98,151,220.8,151,226v30    c0,24.814,20.186,45,45,45c24.814,0,45-20.186,45-45C241,250.316,237.792,245.131,232.709,242.582z M196,271    c-8.276,0-15-6.724-15-15v-5.728l27.627,13.813C205.961,268.246,201.303,271,196,271z" data-original="#000000" class="active-path" data-old_color="##33363" fill="#30353D"/>
	</g>
</g><g>
	<g>
		<path d="M497,211c-8.291,0-15,6.709-15,15v15h-60.835c-1.912-21.16-8.852-41.439-18.342-60H437c24.814,0,45-20.186,45-45V87.237    C499.422,81.024,512,64.53,512,45c0-24.814-20.186-45-45-45c-24.814,0-45,20.186-45,45c0,19.53,12.578,36.024,30,42.237V136    c0,8.276-6.724,15-15,15h-53.927c-32.94-39.758-79.416-60.909-127.072-60.971c-50.864-0.066-97.469,23.113-128.63,60.971H75    c-8.276,0-15-6.724-15-15V87.237C77.422,81.024,90,64.53,90,45C90,20.186,69.814,0,45,0S0,20.186,0,45    c0,19.53,12.578,36.024,30,42.237V136c0,24.814,20.186,44.9,45,44.9h33.184c-9.448,18.514-15.361,38.86-16.959,60.1H30v-15    c0-8.291-6.709-15-15-15s-15,6.709-15,15v60c0,8.291,6.709,15,15,15s15-6.709,15-15v-15h61.467    c3.351,22.954,14.108,44.004,30.412,60H75c-24.814,0-45,20.186-45,45v48.763C12.578,430.976,0,447.47,0,467    c0,24.814,20.186,45,45,45s45-20.186,45-45c0-19.53-12.578-36.024-30-42.237V376c0-8.276,6.724-15,15-15h76v15    c0,24.814,20.186,46,45,46c29.923,0,46.68,0,55.554,0c6.72,0,8.922,0,8.875,0c8.875,0,25.637,0,55.571,0c24.814,0,45-21.186,45-46    v-15h76c8.276,0,15,6.724,15,15v48.763c-17.422,6.213-30,22.707-30,42.237c0,24.814,20.186,45,45,45c24.814,0,45-20.186,45-45    c0-19.53-12.578-36.024-30-42.237V376c0-24.814-20.186-45-45-45h-48.042c10.869-10.554,19.704-23.198,25.23-37.764    c2.736-7.191,5.371-14.659,6.46-22.236H482v15c0,8.291,6.709,15,15,15c8.291,0,15-6.709,15-15v-60    C512,217.709,505.291,211,497,211z M467,30c8.276,0,15,6.724,15,15s-6.724,15-15,15s-15-6.724-15-15S458.724,30,467,30z M45,60    c-8.276,0-15-6.724-15-15s6.724-15,15-15s15,6.724,15,15S53.276,60,45,60z M45,482c-8.276,0-15-6.724-15-15s6.724-15,15-15    s15,6.724,15,15S53.276,482,45,482z M467,452c8.276,0,15,6.724,15,15s-6.724,15-15,15s-15-6.724-15-15S458.724,452,467,452z     M386.151,282.602c-7.852,20.669-24.302,36.709-45.117,44.033c-6.021,2.109-10.034,7.778-10.034,14.15V376c0,8.276-6.724,16-15,16    h-15v-46c0-8.284-6.716-15-15-15s-15,6.716-15,15v46h-30v-46c0-8.284-6.716-15-15-15s-15,6.716-15,15v46h-15    c-8.276,0-15-7.724-15-16v-35.259c-0.059-6.313-4.072-11.909-10.02-14.004c-31.538-11.177-52.987-42.334-50.673-76.436    c1.595-68.139,58.759-130.243,135.355-130.243C330.782,120.059,391,181.461,391,256C391,265.17,389.374,274.105,386.151,282.602z" data-original="#000000" class="active-path" data-old_color="##33363" fill="#30353D"/>
	</g>
</g></g> </svg>
