<!DOCTYPE svg PUBLIC "-//W3C//DTD SVG 20010904//EN" "http://www.w3.org/TR/2001/REC-SVG-20010904/DTD/svg10.dtd">
<svg version="1.0" xmlns="http://www.w3.org/2000/svg" width="957px" height="930px" viewBox="0 0 9570 9300" preserveAspectRatio="xMidYMid meet">
<g id="layer101" fill="#30353D" stroke="none">
 <path d="M6513 7438 c-40 -42 -53 -76 -53 -143 0 -67 13 -101 53 -142 94 -98 221 35 186 196 -24 112 -120 157 -186 89z"/>
 <path d="M6945 7336 c-31 -33 -55 -98 -55 -147 0 -44 25 -103 57 -136 47 -46 96 -46 140 0 40 41 53 75 53 142 0 67 -13 101 -53 143 -44 46 -97 45 -142 -2z"/>
 <path d="M7355 7218 c-81 -63 -86 -219 -10 -295 84 -84 195 3 195 152 -1 85 -61 165 -125 165 -18 0 -45 -10 -60 -22z"/>
 <path d="M4523 6583 c-117 -3 -123 -5 -142 -29 -27 -34 -56 -114 -72 -194 -6 -36 -16 -71 -22 -77 -13 -17 -42 -16 -57 2 -14 17 1 127 31 214 11 30 16 58 12 62 -7 7 -272 -13 -349 -26 -17 -3 -39 -17 -51 -33 -29 -39 -74 -130 -88 -177 -14 -47 -37 -65 -62 -49 -26 17 -20 79 16 158 25 55 28 68 16 73 -22 8 -296 -39 -301 -52 -4 -9 49 -271 91 -450 4 -20 -3 -21 -133 -33 -374 -33 -667 -161 -909 -395 -122 -118 -207 -231 -282 -376 -129 -252 -180 -475 -181 -783 0 -321 64 -596 209 -893 139 -284 357 -556 611 -763 58 -47 110 -91 116 -99 16 -19 250 -132 394 -190 429 -174 822 -252 1370 -273 638 -25 1192 63 1710 272 139 57 403 185 437 214 47 39 51 445 7 675 -18 95 -71 251 -107 312 -69 118 -180 218 -283 256 -55 21 -56 21 -80 2 -74 -58 -352 -68 -492 -18 -107 37 -177 82 -263 168 -207 206 -257 523 -124 794 39 81 135 208 153 202 4 -1 32 25 62 57 116 124 271 198 456 217 109 11 138 23 182 73 74 84 56 192 -39 241 -14 8 -97 31 -185 53 -190 47 -252 70 -331 121 -139 90 -152 233 -31 347 174 164 180 174 159 243 -6 21 -25 54 -43 73 l-33 37 -170 15 c-93 8 -173 12 -177 8 -4 -4 4 -42 17 -85 32 -99 37 -185 13 -201 -32 -20 -50 4 -69 92 -19 85 -49 165 -75 193 -12 14 -49 18 -240 24 -171 5 -228 4 -239 -5 -12 -10 -15 -42 -15 -156 0 -130 -2 -143 -19 -149 -10 -3 -26 -3 -35 1 -14 5 -16 26 -16 148 0 97 -4 146 -12 154 -12 12 -34 12 -335 5z m328 -700 l64 -32 65 32 c54 27 76 32 136 32 61 0 77 -4 120 -30 93 -58 95 -141 8 -314 -82 -165 -263 -396 -330 -421 -74 -29 -126 -1 -208 109 -172 232 -249 394 -231 488 8 44 87 125 148 154 62 29 146 22 228 -18z m-1069 -568 c199 -69 356 -228 425 -428 25 -75 28 -94 28 -222 0 -127 -3 -147 -28 -222 -36 -105 -89 -186 -194 -298 -102 -108 -165 -157 -258 -201 -103 -49 -173 -64 -300 -64 -127 0 -197 15 -300 64 -146 69 -252 175 -321 321 -49 104 -64 174 -64 300 0 126 15 197 64 300 48 99 89 153 197 254 117 110 197 162 297 195 111 36 105 35 247 32 111 -3 142 -7 207 -31z"/>
 </g>
<g id="layer102" fill="#ff6347" stroke="none">
 <path d="M4396 8318 c-259 -14 -717 -62 -836 -87 -25 -6 -72 -15 -105 -21 -223 -42 -610 -149 -760 -210 -16 -7 -39 -16 -50 -20 -30 -11 -63 -25 -189 -79 -63 -27 -248 -119 -297 -148 -26 -16 -73 -44 -105 -63 -33 -19 -63 -37 -68 -39 -5 -2 -60 -40 -124 -84 -144 -100 -289 -216 -414 -330 l-98 -88 0 -139 c0 -84 4 -141 10 -145 6 -4 43 24 83 60 158 147 434 354 597 448 65 38 116 64 295 154 207 104 377 183 570 263 11 4 36 15 55 23 19 9 55 23 80 32 25 9 54 20 65 25 44 17 103 39 160 61 33 12 80 30 105 39 40 15 171 59 365 120 201 64 513 140 790 192 33 6 64 13 68 15 11 6 -12 33 -27 32 -6 -1 -83 -6 -170 -11z"/>
 <path d="M1730 7074 c-98 -76 -170 -136 -292 -248 l-88 -80 0 -467 c0 -328 3 -470 11 -475 6 -3 32 14 57 39 68 65 224 193 325 266 l87 63 0 479 c0 263 -4 480 -8 483 -4 2 -46 -25 -92 -60z"/>
 <path d="M4565 6870 c-3 -5 0 -13 8 -16 23 -8 92 0 92 11 0 14 -92 19 -100 5z"/>
 <path d="M5155 6870 c-3 -5 0 -13 8 -16 23 -8 92 0 92 11 0 14 -92 19 -100 5z"/>
 <path d="M4345 6861 c-7 -13 17 -24 40 -19 9 1 16 8 16 13 0 14 -48 19 -56 6z"/>
 <path d="M5415 6861 c-7 -13 17 -24 40 -19 9 1 16 8 16 13 0 14 -48 19 -56 6z"/>
 <path d="M4195 6850 c-8 -13 20 -24 41 -16 20 8 9 26 -16 26 -10 0 -22 -5 -25 -10z"/>
 <path d="M5575 6850 c-8 -13 20 -24 41 -16 20 8 9 26 -16 26 -10 0 -22 -5 -25 -10z"/>
 <path d="M4075 6840 c-8 -13 20 -24 41 -16 20 8 9 26 -16 26 -10 0 -22 -5 -25 -10z"/>
 <path d="M5695 6840 c-8 -13 20 -24 41 -16 20 8 9 26 -16 26 -10 0 -22 -5 -25 -10z"/>
 <path d="M3975 6830 c-8 -12 20 -24 35 -15 6 3 8 11 5 16 -8 12 -32 12 -40 -1z"/>
 <path d="M5805 6830 c-8 -12 20 -24 35 -15 6 3 8 11 5 16 -8 12 -32 12 -40 -1z"/>
 <path d="M3885 6820 c-8 -12 20 -24 35 -15 6 3 8 11 5 16 -8 12 -32 12 -40 -1z"/>
 <path d="M5895 6820 c-8 -12 20 -24 35 -15 6 3 8 11 5 16 -8 12 -32 12 -40 -1z"/>
 <path d="M3805 6810 c-8 -12 20 -24 35 -15 6 3 8 11 5 16 -8 12 -32 12 -40 -1z"/>
 <path d="M5975 6811 c-7 -12 12 -24 25 -16 11 7 4 25 -10 25 -5 0 -11 -4 -15 -9z"/>
 <path d="M3735 6801 c-7 -12 12 -24 25 -16 11 7 4 25 -10 25 -5 0 -11 -4 -15 -9z"/>
 <path d="M3665 6790 c-8 -12 20 -24 35 -15 6 3 8 11 5 16 -8 12 -32 12 -40 -1z"/>
 <path d="M3605 6781 c-7 -12 12 -24 25 -16 11 7 4 25 -10 25 -5 0 -11 -4 -15 -9z"/>
 <path d="M3545 6771 c-7 -12 12 -24 25 -16 11 7 4 25 -10 25 -5 0 -11 -4 -15 -9z"/>
 <path d="M3495 6761 c-7 -12 12 -24 25 -16 11 7 4 25 -10 25 -5 0 -11 -4 -15 -9z"/>
 <path d="M3435 6751 c-7 -12 12 -24 25 -16 11 7 4 25 -10 25 -5 0 -11 -4 -15 -9z"/>
 <path d="M3386 6741 c-4 -6 -13 -8 -20 -5 -17 6 -31 -12 -16 -21 5 -3 16 -3 23 2 6 4 17 8 22 8 14 0 19 19 7 23 -6 2 -13 -1 -16 -7z"/>
 <path d="M5946 6719 c-15 -23 -12 -44 5 -34 5 4 13 15 19 25 15 28 -6 35 -24 9z"/>
 <path d="M3296 6721 c-4 -6 -13 -8 -20 -5 -17 6 -31 -12 -16 -21 5 -3 16 -3 23 2 6 4 17 8 22 8 14 0 19 19 7 23 -6 2 -13 -1 -16 -7z"/>
 <path d="M3165 6691 c-7 -12 12 -24 25 -16 11 7 4 25 -10 25 -5 0 -11 -4 -15 -9z"/>
 <path d="M4735 6670 c-3 -6 0 -12 7 -15 26 -10 333 0 331 10 -4 14 -329 19 -338 5z"/>
 <path d="M3055 6661 c-7 -12 12 -24 25 -16 11 7 4 25 -10 25 -5 0 -11 -4 -15 -9z"/>
 <path d="M4425 6660 c-3 -5 0 -13 9 -16 21 -8 61 -1 61 11 0 14 -62 19 -70 5z"/>
 <path d="M5325 6660 c-3 -5 0 -13 9 -16 21 -8 61 -1 61 11 0 14 -62 19 -70 5z"/>
 <path d="M4255 6650 c-8 -13 20 -24 41 -16 20 8 9 26 -16 26 -10 0 -22 -5 -25 -10z"/>
 <path d="M5515 6650 c-8 -13 20 -24 41 -16 20 8 9 26 -16 26 -10 0 -22 -5 -25 -10z"/>
 <path d="M2985 6641 c-7 -12 12 -24 25 -16 11 7 4 25 -10 25 -5 0 -11 -4 -15 -9z"/>
 <path d="M4125 6640 c-8 -13 20 -24 41 -16 20 8 9 26 -16 26 -10 0 -22 -5 -25 -10z"/>
 <path d="M5645 6640 c-8 -13 20 -24 41 -16 20 8 9 26 -16 26 -10 0 -22 -5 -25 -10z"/>
 <path d="M5900 6640 c-8 -5 -23 -11 -33 -14 -20 -6 -14 -26 7 -26 19 0 61 36 50 42 -5 3 -16 2 -24 -2z"/>
 <path d="M4015 6630 c-8 -13 20 -24 41 -16 20 8 9 26 -16 26 -10 0 -22 -5 -25 -10z"/>
 <path d="M5755 6630 c-8 -13 20 -24 41 -16 20 8 9 26 -16 26 -10 0 -22 -5 -25 -10z"/>
 <path d="M3925 6620 c-8 -12 20 -24 35 -15 6 3 8 11 5 16 -8 12 -32 12 -40 -1z"/>
 <path d="M2840 6599 c-30 -10 -61 -22 -69 -24 -9 -4 -11 -9 -5 -15 12 -12 143 29 145 45 1 16 -13 15 -71 -6z"/>
 <path d="M3845 6611 c-7 -12 12 -24 25 -16 11 7 4 25 -10 25 -5 0 -11 -4 -15 -9z"/>
 <path d="M3765 6600 c-8 -12 20 -24 35 -15 6 3 8 11 5 16 -8 12 -32 12 -40 -1z"/>
 <path d="M3695 6590 c-8 -12 20 -24 35 -15 6 3 8 11 5 16 -8 12 -32 12 -40 -1z"/>
 <path d="M3635 6581 c-7 -12 12 -24 25 -16 11 7 4 25 -10 25 -5 0 -11 -4 -15 -9z"/>
 <path d="M3575 6571 c-7 -12 12 -24 25 -16 11 7 4 25 -10 25 -5 0 -11 -4 -15 -9z"/>
 <path d="M3515 6561 c-7 -12 12 -24 25 -16 11 7 4 25 -10 25 -5 0 -11 -4 -15 -9z"/>
 <path d="M3455 6550 c-8 -12 20 -24 35 -15 6 3 8 11 5 16 -8 12 -32 12 -40 -1z"/>
 <path d="M2685 6541 c-7 -12 12 -24 25 -16 11 7 4 25 -10 25 -5 0 -11 -4 -15 -9z"/>
 <path d="M3405 6541 c-7 -12 12 -24 25 -16 11 7 4 25 -10 25 -5 0 -11 -4 -15 -9z"/>
 <path d="M3356 6531 c-4 -6 -13 -8 -20 -5 -17 6 -31 -12 -16 -21 5 -3 16 -3 23 2 6 4 17 8 22 8 14 0 19 19 7 23 -6 2 -13 -1 -16 -7z"/>
 <path d="M2605 6511 c-7 -12 12 -24 25 -16 11 7 4 25 -10 25 -5 0 -11 -4 -15 -9z"/>
 <path d="M3266 6511 c-4 -6 -13 -8 -20 -5 -8 3 -17 1 -20 -5 -4 -6 -13 -8 -20 -5 -8 3 -17 1 -20 -5 -4 -6 -13 -8 -20 -5 -8 3 -17 1 -20 -5 -4 -6 -13 -8 -20 -5 -8 3 -17 1 -20 -5 -4 -6 -13 -8 -20 -5 -8 3 -17 1 -20 -5 -9 -14 14 -25 26 -13 6 6 16 8 23 6 7 -3 16 -1 19 5 4 6 13 8 20 5 8 -3 17 -1 20 5 4 6 13 8 20 5 8 -3 17 0 21 5 3 6 11 9 16 6 5 -4 15 -3 22 2 6 4 17 8 22 8 14 0 19 19 7 23 -6 2 -13 -1 -16 -7z"/>
 <path d="M2555 6491 c-7 -12 12 -24 25 -16 11 7 4 25 -10 25 -5 0 -11 -4 -15 -9z"/>
 <path d="M2485 6461 c-7 -12 12 -24 25 -16 11 7 4 25 -10 25 -5 0 -11 -4 -15 -9z"/>
 <path d="M3372 6446 c-19 -6 -39 -20 -44 -31 -11 -18 -6 -155 8 -278 l6 -54 -98 -7 c-251 -17 -395 -54 -599 -153 -301 -145 -551 -416 -687 -743 -6 -14 -14 -32 -18 -40 -4 -8 -15 -42 -24 -75 -10 -33 -22 -71 -27 -85 -17 -48 -38 -171 -50 -289 -10 -96 -10 -158 0 -298 6 -98 16 -194 21 -213 5 -19 23 -93 40 -165 18 -71 41 -152 52 -180 11 -27 24 -59 28 -70 31 -80 136 -279 196 -370 97 -149 188 -261 310 -381 128 -126 197 -182 315 -255 221 -137 253 -136 81 4 -443 359 -732 856 -806 1386 -20 140 -20 393 -1 528 28 199 75 345 166 524 169 327 440 558 796 677 136 46 344 82 475 82 26 0 49 4 53 9 5 9 -89 464 -101 482 -7 12 -52 10 -92 -5z"/>
 <path d="M2995 6441 c-7 -12 12 -24 25 -16 11 7 4 25 -10 25 -5 0 -11 -4 -15 -9z"/>
 <path d="M2366 6408 c-25 -13 -35 -23 -28 -30 10 -10 65 12 77 31 11 19 -11 19 -49 -1z"/>
 <path d="M2903 6417 c-33 -12 -42 -34 -12 -30 33 4 70 23 64 33 -7 12 -11 12 -52 -3z"/>
 <path d="M2251 6349 c-40 -24 -32 -45 9 -24 16 8 31 19 35 24 11 19 -12 19 -44 0z"/>
 <path d="M2731 6359 c-16 -6 -21 -13 -14 -20 13 -13 67 7 58 21 -7 12 -12 12 -44 -1z"/>
 <path d="M2635 6321 c-7 -12 12 -24 25 -16 11 7 4 25 -10 25 -5 0 -11 -4 -15 -9z"/>
 <path d="M2135 6286 c-14 -10 -15 -15 -6 -21 8 -4 19 -1 28 8 20 19 1 30 -22 13z"/>
 <path d="M2535 6281 c-7 -12 12 -24 25 -16 11 7 4 25 -10 25 -5 0 -11 -4 -15 -9z"/>
 <path d="M2481 6257 c-6 -8 -8 -17 -5 -20 10 -9 45 13 39 24 -9 13 -21 11 -34 -4z"/>
 <path d="M2071 6246 c-7 -8 -8 -17 -3 -20 6 -3 15 1 21 8 7 8 8 17 3 20 -6 3 -15 -1 -21 -8z"/>
 <path d="M2391 6217 c-6 -8 -8 -17 -5 -20 10 -9 45 13 39 24 -9 13 -21 11 -34 -4z"/>
 <path d="M1972 6188 c-22 -14 -30 -24 -23 -31 12 -12 74 30 66 44 -4 5 -7 9 -8 8 -1 0 -17 -10 -35 -21z"/>
 <path d="M1890 6133 c-43 -29 -60 -45 -54 -54 3 -5 25 5 50 22 24 16 42 34 39 40 -7 11 -4 12 -35 -8z"/>
 <path d="M2142 6094 c-32 -22 -17 -37 19 -19 16 9 27 20 24 25 -8 14 -17 12 -43 -6z"/>
 <path d="M1785 6056 c-15 -13 -24 -25 -19 -29 6 -3 23 4 39 17 15 13 24 25 19 29 -6 3 -23 -4 -39 -17z"/>
 <path d="M2061 6047 c-6 -8 -8 -17 -5 -20 10 -9 45 13 39 24 -9 13 -21 11 -34 -4z"/>
 <path d="M1726 6011 c-10 -11 -13 -22 -8 -25 5 -3 17 3 26 13 10 11 13 22 8 25 -5 3 -17 -3 -26 -13z"/>
 <path d="M1952 5982 c-13 -10 -20 -21 -16 -24 10 -10 66 21 59 32 -9 14 -17 12 -43 -8z"/>
 <path d="M1681 5976 c-7 -8 -8 -17 -3 -20 6 -3 15 1 21 8 7 8 8 17 3 20 -6 3 -15 -1 -21 -8z"/>
 <path d="M1631 5936 c-7 -8 -8 -17 -3 -20 6 -3 15 1 21 8 7 8 8 17 3 20 -6 3 -15 -1 -21 -8z"/>
 <path d="M1851 5917 c-6 -8 -8 -17 -5 -20 10 -9 45 13 39 24 -9 13 -21 11 -34 -4z"/>
 <path d="M1566 5881 c-10 -11 -13 -22 -8 -25 5 -3 17 3 26 13 10 11 13 22 8 25 -5 3 -17 -3 -26 -13z"/>
 <path d="M1765 5856 c-15 -13 -24 -25 -19 -29 6 -3 23 4 39 17 15 13 24 25 19 29 -6 3 -23 -4 -39 -17z"/>
 <path d="M4486 5810 c-68 -81 -31 -212 123 -441 161 -239 217 -280 316 -233 67 32 87 84 24 62 -75 -26 -130 19 -258 206 -122 179 -185 333 -163 396 18 49 -4 54 -42 10z"/>
 <path d="M1711 5816 c-7 -8 -8 -17 -3 -20 6 -3 15 1 21 8 7 8 8 17 3 20 -6 3 -15 -1 -21 -8z"/>
 <path d="M1471 5796 c-13 -13 -18 -26 -13 -30 5 -3 19 5 31 18 13 13 18 26 13 30 -5 3 -19 -5 -31 -18z"/>
 <path d="M1671 5786 c-7 -8 -8 -17 -3 -20 6 -3 15 1 21 8 7 8 8 17 3 20 -6 3 -15 -1 -21 -8z"/>
 <path d="M1631 5756 c-7 -8 -8 -17 -3 -20 6 -3 15 1 21 8 7 8 8 17 3 20 -6 3 -15 -1 -21 -8z"/>
 <path d="M1581 5716 c-7 -8 -8 -17 -3 -20 6 -3 15 1 21 8 7 8 8 17 3 20 -6 3 -15 -1 -21 -8z"/>
 <path d="M1355 5688 c-10 -24 -1 -178 10 -178 13 0 19 170 6 183 -7 7 -12 5 -16 -5z"/>
 <path d="M1521 5666 c-7 -8 -8 -17 -3 -20 6 -3 15 1 21 8 7 8 8 17 3 20 -6 3 -15 -1 -21 -8z"/>
 <path d="M1446 5601 c-10 -11 -13 -22 -8 -25 5 -3 17 3 26 13 10 11 13 22 8 25 -5 3 -17 -3 -26 -13z"/>
 <path d="M1106 5383 c-53 -14 -127 -78 -145 -126 -7 -19 -11 -217 -11 -592 l0 -563 33 -48 c55 -81 72 -89 195 -89 l107 0 3 700 c2 649 1 701 -15 713 -16 12 -127 15 -167 5z"/>
 <path d="M866 5143 c-3 -3 -6 -210 -6 -459 0 -315 -3 -455 -11 -460 -16 -10 6 -28 25 -21 14 6 16 58 16 471 0 256 -4 467 -9 470 -4 3 -11 3 -15 -1z"/>
 <path d="M806 5101 c-15 -16 -23 -31 -18 -35 5 -3 21 8 36 23 15 16 23 31 18 35 -5 3 -21 -8 -36 -23z"/>
 <path d="M5636 5038 c-198 -213 -240 -519 -109 -787 38 -79 60 -109 132 -180 150 -149 268 -202 471 -209 129 -4 210 8 294 43 35 15 37 18 23 32 -21 22 -120 43 -202 43 -199 1 -407 102 -521 253 -55 73 -108 179 -129 260 -18 69 -20 267 -4 335 13 51 75 188 109 239 40 60 2 43 -64 -29z"/>
 <path d="M2943 5058 c-83 -91 -148 -209 -178 -323 -21 -79 -21 -260 0 -340 36 -140 130 -287 239 -376 72 -59 196 -123 281 -144 78 -20 262 -20 340 0 115 30 269 118 344 198 41 45 14 48 -50 7 -33 -21 -97 -51 -142 -67 -75 -25 -95 -28 -222 -28 -128 0 -147 3 -222 28 -202 70 -360 228 -430 430 -25 75 -28 95 -28 222 0 127 3 147 28 222 16 45 46 109 67 142 35 54 40 71 20 71 -4 0 -25 -19 -47 -42z"/>
 <path d="M766 5051 c-4 -6 -5 -15 -1 -20 3 -5 1 -12 -5 -16 -13 -8 -14 -681 0 -690 5 -3 7 -12 4 -19 -3 -8 -1 -17 5 -20 12 -8 24 10 16 23 -8 13 -7 709 1 722 3 6 2 15 -4 21 -6 6 -12 6 -16 -1z"/>
 <path d="M9051 4736 c-6 -7 -7 -17 -3 -21 4 -5 2 -5 -4 -2 -15 8 -39 -19 -25 -27 5 -4 13 -1 18 6 4 7 10 -72 13 -177 3 -104 1 -195 -3 -202 -5 -7 -6 -17 -2 -23 9 -14 28 -1 21 16 -3 7 -1 16 4 19 13 8 13 412 1 419 -5 3 -14 0 -20 -8z"/>
 <path d="M8946 4673 c-3 -3 -6 -109 -6 -235 0 -198 2 -229 16 -235 19 -7 41 11 25 21 -7 5 -11 79 -11 226 0 199 -5 242 -24 223z"/>
 <path d="M8829 4394 c-36 -39 -64 -48 -179 -54 l-105 -5 0 -185 0 -185 107 0 c123 0 140 8 196 90 l32 48 -2 155 c-2 98 -7 157 -14 159 -5 2 -21 -8 -35 -23z"/>
 <path d="M786 4272 c-3 -5 5 -19 18 -31 13 -13 26 -18 30 -13 3 5 -5 19 -18 31 -13 13 -26 18 -30 13z"/>
 <path d="M9011 4256 c-13 -13 -18 -26 -13 -30 5 -3 19 5 31 18 13 13 18 26 13 30 -5 3 -19 -5 -31 -18z"/>
 <path d="M1427 3763 c-4 -6 11 -27 32 -47 21 -21 41 -34 44 -29 4 6 -11 27 -32 47 -21 21 -41 34 -44 29z"/>
 <path d="M1364 3746 c-4 -10 -2 -22 4 -28 8 -8 13 -7 18 6 4 10 2 22 -4 28 -8 8 -13 7 -18 -6z"/>
 <path d="M1375 3650 c-4 -6 -2 -17 4 -24 6 -7 9 -15 6 -18 -3 -2 6 -15 19 -27 13 -12 26 -18 30 -13 3 5 -5 19 -19 32 -13 12 -21 28 -19 35 7 16 -12 29 -21 15z"/>
 <path d="M1616 3582 c-3 -5 5 -19 18 -31 13 -13 26 -18 30 -13 3 5 -5 19 -18 31 -13 13 -26 18 -30 13z"/>
 <path d="M1726 3482 c-3 -5 5 -19 18 -31 13 -13 26 -18 30 -13 3 5 -5 19 -18 31 -13 13 -26 18 -30 13z"/>
 <path d="M1405 3461 c-3 -5 8 -61 25 -123 41 -154 68 -239 115 -353 7 -16 19 -45 26 -64 22 -53 96 -200 129 -256 16 -27 33 -57 37 -65 20 -39 160 -238 233 -331 110 -139 345 -371 503 -497 107 -86 340 -248 412 -288 11 -6 40 -23 65 -37 53 -31 261 -135 316 -158 97 -42 120 -52 139 -59 11 -4 33 -13 50 -20 134 -54 459 -148 625 -181 236 -46 672 -91 684 -70 8 13 3 15 -74 30 -251 48 -549 126 -665 173 -27 11 -68 27 -90 35 -91 35 -141 56 -200 84 -178 84 -217 103 -270 134 -33 19 -69 38 -80 44 -11 5 -37 21 -58 35 -21 14 -40 26 -43 26 -8 0 -154 100 -239 164 -237 178 -455 390 -632 616 -52 68 -186 269 -219 330 -10 19 -33 60 -50 90 -18 30 -42 80 -54 110 -14 35 -35 66 -58 85 -94 77 -360 315 -479 429 -73 69 -134 126 -137 126 -3 0 -7 -4 -11 -9z"/>
 <path d="M1606 3402 c-3 -5 8 -21 23 -36 16 -15 31 -23 35 -18 3 5 -8 21 -23 36 -16 15 -31 23 -35 18z"/>
 <path d="M1826 3392 c-3 -5 3 -17 13 -26 11 -10 22 -13 25 -8 3 5 -3 17 -13 26 -11 10 -22 13 -25 8z"/>
 <path d="M1896 3332 c-3 -5 3 -17 13 -26 11 -10 22 -13 25 -8 3 5 -3 17 -13 26 -11 10 -22 13 -25 8z"/>
 <path d="M1746 3272 c-3 -5 5 -19 18 -31 13 -13 26 -18 30 -13 3 5 -5 19 -18 31 -13 13 -26 18 -30 13z"/>
 <path d="M1966 3272 c-3 -5 3 -17 13 -26 11 -10 22 -13 25 -8 3 5 -3 17 -13 26 -11 10 -22 13 -25 8z"/>
 <path d="M2026 3222 c-3 -6 1 -15 8 -21 8 -7 17 -8 20 -3 3 6 -1 15 -8 21 -8 7 -17 8 -20 3z"/>
 <path d="M1846 3182 c-3 -5 5 -19 18 -31 13 -13 26 -18 30 -13 3 5 -5 19 -18 31 -13 13 -26 18 -30 13z"/>
 <path d="M2086 3172 c-3 -6 1 -15 8 -21 8 -7 17 -8 20 -3 3 6 -1 15 -8 21 -8 7 -17 8 -20 3z"/>
 <path d="M2136 3132 c-3 -6 1 -15 8 -21 8 -7 17 -8 20 -3 3 6 -1 15 -8 21 -8 7 -17 8 -20 3z"/>
 <path d="M1936 3102 c-3 -5 3 -17 13 -26 11 -10 22 -13 25 -8 3 5 -3 17 -13 26 -11 10 -22 13 -25 8z"/>
 <path d="M2176 3102 c-3 -5 3 -17 13 -26 11 -10 22 -13 25 -8 3 5 -3 17 -13 26 -11 10 -22 13 -25 8z"/>
 <path d="M2226 3062 c-3 -6 1 -15 8 -21 8 -7 17 -8 20 -3 3 6 -1 15 -8 21 -8 7 -17 8 -20 3z"/>
 <path d="M2006 3042 c-3 -6 1 -15 8 -21 8 -7 17 -8 20 -3 3 6 -1 15 -8 21 -8 7 -17 8 -20 3z"/>
 <path d="M2266 3032 c-3 -6 1 -15 8 -21 8 -7 17 -8 20 -3 3 6 -1 15 -8 21 -8 7 -17 8 -20 3z"/>
 <path d="M2306 3002 c-3 -6 1 -15 8 -21 8 -7 17 -8 20 -3 3 6 -1 15 -8 21 -8 7 -17 8 -20 3z"/>
 <path d="M2066 2992 c-3 -5 3 -17 13 -26 11 -10 22 -13 25 -8 3 5 -3 17 -13 26 -11 10 -22 13 -25 8z"/>
 <path d="M2346 2972 c-3 -6 1 -15 8 -21 8 -7 17 -8 20 -3 3 6 -1 15 -8 21 -8 7 -17 8 -20 3z"/>
 <path d="M2126 2942 c-3 -6 1 -15 8 -21 8 -7 17 -8 20 -3 3 6 -1 15 -8 21 -8 7 -17 8 -20 3z"/>
 <path d="M2386 2941 c-4 -5 7 -19 23 -30 16 -12 32 -17 35 -12 4 5 -7 19 -23 30 -16 12 -32 17 -35 12z"/>
 <path d="M2176 2902 c-3 -5 3 -17 13 -26 11 -10 22 -13 25 -8 3 5 -3 17 -13 26 -11 10 -22 13 -25 8z"/>
 <path d="M2486 2871 c-9 -14 143 -116 155 -104 6 6 -12 24 -48 47 -32 20 -68 43 -80 52 -13 9 -23 11 -27 5z"/>
 <path d="M2226 2862 c-3 -6 1 -15 8 -21 8 -7 17 -8 20 -3 3 6 -1 15 -8 21 -8 7 -17 8 -20 3z"/>
 <path d="M2276 2822 c-3 -6 1 -15 8 -21 8 -7 17 -8 20 -3 3 6 -1 15 -8 21 -8 7 -17 8 -20 3z"/>
 <path d="M2316 2792 c-3 -6 1 -15 8 -21 8 -7 17 -8 20 -3 3 6 -1 15 -8 21 -8 7 -17 8 -20 3z"/>
 <path d="M7185 2786 c-14 -10 -15 -15 -6 -21 8 -4 19 -1 28 8 20 19 1 30 -22 13z"/>
 <path d="M2356 2762 c-3 -6 1 -15 8 -21 8 -7 17 -8 20 -3 3 6 -1 15 -8 21 -8 7 -17 8 -20 3z"/>
 <path d="M2396 2732 c-3 -6 1 -15 8 -21 8 -7 17 -8 20 -3 3 6 -1 15 -8 21 -8 7 -17 8 -20 3z"/>
 <path d="M2736 2712 c-3 -6 1 -15 8 -21 8 -7 17 -8 20 -3 3 6 -1 15 -8 21 -8 7 -17 8 -20 3z"/>
 <path d="M7061 2706 c-7 -8 -8 -17 -3 -20 6 -3 15 1 21 8 7 8 8 17 3 20 -6 3 -15 -1 -21 -8z"/>
 <path d="M2436 2701 c-4 -5 7 -19 23 -30 16 -12 32 -17 35 -12 4 5 -7 19 -23 30 -16 12 -32 17 -35 12z"/>
 <path d="M2786 2682 c-3 -6 1 -15 8 -21 8 -7 17 -8 20 -3 3 6 -1 15 -8 21 -8 7 -17 8 -20 3z"/>
 <path d="M7011 2676 c-7 -8 -8 -17 -3 -20 6 -3 15 1 21 8 7 8 8 17 3 20 -6 3 -15 -1 -21 -8z"/>
 <path d="M7142 2657 c-21 -27 -41 -76 -33 -81 10 -7 22 7 45 51 16 32 7 54 -12 30z"/>
 <path d="M2505 2650 c-3 -5 27 -32 67 -60 105 -73 156 -102 162 -92 3 5 -46 44 -109 85 -63 42 -117 72 -120 67z"/>
 <path d="M2836 2651 c-9 -15 23 -36 35 -24 8 8 5 14 -9 22 -12 6 -23 7 -26 2z"/>
 <path d="M6955 2646 c-14 -10 -15 -15 -6 -21 8 -4 19 -1 28 8 20 19 1 30 -22 13z"/>
 <path d="M2925 2601 c-7 -12 35 -42 47 -35 11 7 2 21 -22 34 -11 6 -21 6 -25 1z"/>
 <path d="M6859 2592 c-13 -12 -18 -21 -12 -25 6 -4 21 1 34 11 13 12 18 21 12 25 -6 4 -21 -1 -34 -11z"/>
 <path d="M7031 2497 c-6 -8 -8 -17 -5 -20 10 -9 45 13 39 24 -9 13 -21 11 -34 -4z"/>
 <path d="M2766 2482 c-3 -6 1 -15 8 -21 8 -7 17 -8 20 -3 3 6 -1 15 -8 21 -8 7 -17 8 -20 3z"/>
 <path d="M3155 2481 c-7 -13 32 -34 47 -25 7 5 5 11 -7 21 -22 15 -32 16 -40 4z"/>
 <path d="M6625 2477 c-12 -10 -14 -16 -7 -21 15 -9 54 12 47 25 -8 12 -18 11 -40 -4z"/>
 <path d="M6981 2467 c-6 -8 -8 -17 -5 -20 10 -9 45 13 39 24 -9 13 -21 11 -34 -4z"/>
 <path d="M2805 2451 c-6 -11 29 -33 39 -24 7 7 -12 33 -25 33 -4 0 -10 -4 -14 -9z"/>
 <path d="M3256 2441 c-9 -15 23 -36 35 -24 8 8 5 14 -9 22 -12 6 -23 7 -26 2z"/>
 <path d="M6535 2436 c-14 -10 -15 -15 -6 -21 8 -4 19 -1 28 8 20 19 1 30 -22 13z"/>
 <path d="M6931 2437 c-6 -8 -8 -17 -5 -20 10 -9 45 13 39 24 -9 13 -21 11 -34 -4z"/>
 <path d="M2865 2421 c-7 -12 35 -42 47 -35 11 7 2 21 -22 34 -11 6 -21 6 -25 1z"/>
 <path d="M3315 2411 c-7 -12 12 -24 25 -16 11 7 4 25 -10 25 -5 0 -11 -4 -15 -9z"/>
 <path d="M6475 2411 c-7 -12 12 -24 25 -16 11 7 4 25 -10 25 -5 0 -11 -4 -15 -9z"/>
 <path d="M6869 2402 c-13 -12 -18 -21 -12 -25 6 -4 21 1 34 11 13 12 18 21 12 25 -6 4 -21 -1 -34 -11z"/>
 <path d="M3365 2391 c-7 -12 12 -24 25 -16 11 7 4 25 -10 25 -5 0 -11 -4 -15 -9z"/>
 <path d="M6425 2391 c-7 -12 12 -24 25 -16 11 7 4 25 -10 25 -5 0 -11 -4 -15 -9z"/>
 <path d="M2945 2370 c-3 -5 8 -16 24 -25 36 -18 51 -3 19 19 -26 18 -35 20 -43 6z"/>
 <path d="M3415 2371 c-7 -12 12 -24 25 -16 11 7 4 25 -10 25 -5 0 -11 -4 -15 -9z"/>
 <path d="M6375 2371 c-7 -12 12 -24 25 -16 11 7 4 25 -10 25 -5 0 -11 -4 -15 -9z"/>
 <path d="M6696 2313 c-59 -30 -85 -48 -79 -54 11 -11 165 60 177 80 15 24 -16 16 -98 -26z"/>
 <path d="M3525 2330 c-6 -9 9 -18 62 -34 29 -9 40 12 11 23 -51 19 -67 21 -73 11z"/>
 <path d="M6243 2327 c-33 -12 -42 -34 -12 -30 33 4 70 23 64 33 -7 12 -11 12 -52 -3z"/>
 <path d="M3685 2281 c-7 -12 12 -24 25 -16 11 7 4 25 -10 25 -5 0 -11 -4 -15 -9z"/>
 <path d="M6105 2281 c-7 -12 12 -24 25 -16 11 7 4 25 -10 25 -5 0 -11 -4 -15 -9z"/>
 <path d="M3755 2261 c-7 -12 12 -24 24 -16 5 3 13 0 16 -6 4 -5 13 -8 21 -5 7 3 16 1 20 -5 3 -6 12 -8 19 -5 7 2 17 0 23 -6 12 -12 35 -1 26 13 -3 6 -12 8 -20 5 -7 -3 -16 -1 -20 5 -3 6 -12 8 -20 5 -7 -3 -16 -1 -20 5 -3 6 -12 8 -20 5 -7 -3 -16 -1 -19 4 -8 13 -22 13 -30 1z"/>
 <path d="M6036 2261 c-4 -6 -13 -8 -20 -5 -8 3 -17 1 -20 -5 -4 -6 -13 -8 -20 -5 -8 3 -17 1 -20 -5 -4 -6 -13 -8 -20 -5 -17 7 -30 -12 -16 -21 6 -4 17 -2 24 4 7 6 16 8 19 4 4 -3 13 -1 20 5 8 7 17 9 20 6 3 -3 12 -2 19 2 7 5 18 9 23 9 14 0 19 19 7 23 -6 2 -13 -1 -16 -7z"/>
 <path d="M3185 2251 c-7 -13 32 -34 47 -25 7 5 5 11 -7 21 -22 15 -32 16 -40 4z"/>
 <path d="M6515 2227 c-12 -10 -14 -16 -7 -21 15 -9 54 12 47 25 -8 12 -18 11 -40 -4z"/>
 <path d="M3275 2211 c-6 -11 29 -33 39 -24 7 7 -12 33 -25 33 -4 0 -10 -4 -14 -9z"/>
 <path d="M3965 2211 c-7 -12 12 -24 25 -16 11 7 4 25 -10 25 -5 0 -11 -4 -15 -9z"/>
 <path d="M5825 2211 c-7 -12 12 -24 25 -16 11 7 4 25 -10 25 -5 0 -11 -4 -15 -9z"/>
 <path d="M4015 2201 c-7 -12 12 -24 25 -16 11 7 4 25 -10 25 -5 0 -11 -4 -15 -9z"/>
 <path d="M5775 2201 c-7 -12 12 -24 25 -16 11 7 4 25 -10 25 -5 0 -11 -4 -15 -9z"/>
 <path d="M6451 2197 c-6 -8 -8 -17 -5 -20 10 -9 45 13 39 24 -9 13 -21 11 -34 -4z"/>
 <path d="M4065 2190 c-8 -12 20 -24 35 -15 6 3 8 11 5 16 -8 12 -32 12 -40 -1z"/>
 <path d="M5715 2190 c-8 -12 20 -24 35 -15 6 3 8 11 5 16 -8 12 -32 12 -40 -1z"/>
 <path d="M4125 2181 c-7 -12 12 -24 25 -16 11 7 4 25 -10 25 -5 0 -11 -4 -15 -9z"/>
 <path d="M5665 2181 c-7 -12 12 -24 25 -16 11 7 4 25 -10 25 -5 0 -11 -4 -15 -9z"/>
 <path d="M4185 2170 c-8 -12 20 -24 35 -15 6 3 8 11 5 16 -8 12 -32 12 -40 -1z"/>
 <path d="M5595 2170 c-8 -12 20 -24 35 -15 6 3 8 11 5 16 -8 12 -32 12 -40 -1z"/>
 <path d="M4265 2161 c-7 -12 12 -24 25 -16 11 7 4 25 -10 25 -5 0 -11 -4 -15 -9z"/>
 <path d="M5525 2161 c-7 -12 12 -24 25 -16 11 7 4 25 -10 25 -5 0 -11 -4 -15 -9z"/>
 <path d="M6350 2155 c-7 -8 -16 -13 -20 -10 -15 9 -64 -15 -53 -26 6 -6 19 -6 39 1 16 6 31 12 34 12 16 1 40 20 35 29 -9 13 -21 11 -35 -6z"/>
 <path d="M3425 2151 c-7 -12 12 -24 25 -16 11 7 4 25 -10 25 -5 0 -11 -4 -15 -9z"/>
 <path d="M4345 2150 c-8 -12 20 -24 35 -15 6 3 8 11 5 16 -8 12 -32 12 -40 -1z"/>
 <path d="M5435 2150 c-8 -12 20 -24 35 -15 6 3 8 11 5 16 -8 12 -32 12 -40 -1z"/>
 <path d="M4435 2140 c-8 -13 20 -24 41 -16 20 8 9 26 -16 26 -10 0 -22 -5 -25 -10z"/>
 <path d="M5335 2140 c-8 -13 20 -24 41 -16 20 8 9 26 -16 26 -10 0 -22 -5 -25 -10z"/>
 <path d="M4565 2131 c-7 -13 17 -24 40 -19 9 1 16 8 16 13 0 14 -48 19 -56 6z"/>
 <path d="M5195 2131 c-7 -13 17 -24 40 -19 9 1 16 8 16 13 0 14 -48 19 -56 6z"/>
 <path d="M3505 2120 c-3 -6 0 -12 7 -15 82 -30 103 -34 111 -26 7 7 5 12 -4 16 -37 13 -102 35 -105 35 -1 0 -6 -5 -9 -10z"/>
 <path d="M4865 2120 c-3 -5 0 -13 8 -16 23 -8 82 0 82 11 0 14 -82 19 -90 5z"/>
 <path d="M6133 2087 c-33 -12 -42 -34 -12 -30 33 4 70 23 64 33 -7 12 -11 12 -52 -3z"/>
 <path d="M3695 2061 c-6 -11 13 -26 22 -17 3 3 12 1 19 -5 7 -6 18 -8 24 -4 14 9 1 28 -16 21 -7 -3 -16 -1 -19 4 -8 13 -22 13 -30 1z"/>
 <path d="M6026 2051 c-4 -6 -13 -8 -20 -5 -8 3 -17 1 -20 -5 -4 -6 -13 -8 -20 -5 -8 3 -17 1 -20 -5 -4 -6 -13 -8 -20 -5 -8 3 -17 1 -20 -5 -4 -6 -13 -8 -20 -5 -8 3 -17 1 -20 -5 -9 -14 14 -25 26 -13 6 6 16 8 23 6 7 -3 16 -1 19 5 4 6 13 8 20 5 8 -3 17 0 21 5 3 6 11 9 16 6 5 -4 15 -3 22 2 6 4 17 8 22 8 14 0 19 19 7 23 -6 2 -13 -1 -16 -7z"/>
 <path d="M3805 2031 c-6 -11 13 -26 22 -17 3 3 12 1 19 -5 7 -6 18 -8 24 -4 14 9 1 28 -16 21 -7 -3 -16 -1 -19 4 -8 13 -22 13 -30 1z"/>
 <path d="M3895 2011 c-6 -11 13 -26 22 -17 3 3 12 1 19 -5 7 -6 18 -8 24 -4 14 9 1 28 -16 21 -7 -3 -16 -1 -19 4 -8 13 -22 13 -30 1z"/>
 <path d="M5816 2001 c-4 -6 -13 -8 -20 -5 -17 6 -31 -12 -16 -21 5 -3 16 -3 23 2 6 4 17 8 22 8 14 0 19 19 7 23 -6 2 -13 -1 -16 -7z"/>
 <path d="M3985 1991 c-7 -12 12 -24 25 -16 11 7 4 25 -10 25 -5 0 -11 -4 -15 -9z"/>
 <path d="M4035 1981 c-7 -12 12 -24 25 -16 11 7 4 25 -10 25 -5 0 -11 -4 -15 -9z"/>
 <path d="M5715 1981 c-7 -12 12 -24 25 -16 11 7 4 25 -10 25 -5 0 -11 -4 -15 -9z"/>
 <path d="M4095 1971 c-7 -12 12 -24 25 -16 11 7 4 25 -10 25 -5 0 -11 -4 -15 -9z"/>
 <path d="M5665 1971 c-7 -12 12 -24 25 -16 11 7 4 25 -10 25 -5 0 -11 -4 -15 -9z"/>
 <path d="M4155 1961 c-7 -12 12 -24 25 -16 11 7 4 25 -10 25 -5 0 -11 -4 -15 -9z"/>
 <path d="M5605 1961 c-7 -12 12 -24 25 -16 11 7 4 25 -10 25 -5 0 -11 -4 -15 -9z"/>
 <path d="M4225 1951 c-7 -12 12 -24 25 -16 11 7 4 25 -10 25 -5 0 -11 -4 -15 -9z"/>
 <path d="M5535 1951 c-7 -12 12 -24 25 -16 11 7 4 25 -10 25 -5 0 -11 -4 -15 -9z"/>
 <path d="M4295 1940 c-8 -12 20 -24 35 -15 6 3 8 11 5 16 -8 12 -32 12 -40 -1z"/>
 <path d="M5455 1940 c-8 -12 20 -24 35 -15 6 3 8 11 5 16 -8 12 -32 12 -40 -1z"/>
 <path d="M4385 1930 c-8 -13 20 -24 41 -16 20 8 9 26 -16 26 -10 0 -22 -5 -25 -10z"/>
 <path d="M5355 1930 c-8 -13 20 -24 41 -16 20 8 9 26 -16 26 -10 0 -22 -5 -25 -10z"/>
 <path d="M4505 1920 c-8 -13 20 -24 41 -16 20 8 9 26 -16 26 -10 0 -22 -5 -25 -10z"/>
 <path d="M5235 1920 c-8 -13 20 -24 41 -16 20 8 9 26 -16 26 -10 0 -22 -5 -25 -10z"/>
 <path d="M4685 1910 c-3 -5 0 -13 8 -16 23 -8 102 0 102 11 0 14 -102 19 -110 5z"/>
 <path d="M5005 1910 c-3 -5 0 -13 8 -16 23 -8 92 0 92 11 0 14 -92 19 -100 5z"/>
 </g>
<g id="layer103" fill="#1e90ff" stroke="none">
 <path d="M4819 6886 c-4 -4 -98 -9 -210 -12 -112 -3 -226 -6 -254 -8 -77 -6 -194 -15 -260 -22 -33 -3 -85 -8 -115 -10 -30 -2 -72 -6 -92 -9 -21 -3 -55 -7 -75 -9 -21 -3 -51 -8 -68 -11 -16 -3 -46 -8 -65 -10 -19 -3 -51 -7 -70 -10 -19 -3 -44 -7 -55 -9 -11 -1 -27 -5 -35 -8 -19 -8 -139 -31 -165 -32 -11 -1 -25 -5 -32 -9 -6 -4 -33 -10 -60 -13 -26 -3 -57 -9 -68 -14 -23 -9 -99 -30 -132 -35 -12 -2 -27 -6 -34 -11 -7 -4 -22 -8 -35 -10 -12 -1 -52 -14 -87 -28 -35 -14 -91 -32 -123 -41 -32 -8 -62 -19 -68 -25 -5 -5 -19 -10 -29 -10 -10 0 -31 -6 -45 -14 -24 -13 -58 -28 -132 -57 -32 -14 -168 -78 -200 -95 -14 -8 -47 -25 -75 -39 -27 -14 -72 -38 -100 -55 -27 -16 -61 -34 -75 -40 -14 -6 -34 -20 -45 -30 -11 -10 -34 -26 -51 -37 -18 -10 -76 -49 -129 -88 -53 -38 -105 -75 -114 -80 -10 -6 -25 -17 -34 -25 -9 -8 -28 -24 -43 -35 -29 -22 -74 -60 -144 -124 -25 -23 -66 -60 -93 -82 l-47 -42 0 -88 c0 -48 4 -90 8 -93 4 -2 37 23 72 56 126 116 350 289 439 338 15 8 43 27 63 43 19 15 39 27 44 27 6 0 15 5 22 12 24 24 367 202 477 248 11 4 36 15 57 24 20 9 42 16 50 16 8 0 23 7 34 15 10 8 28 15 39 15 11 0 30 7 41 15 12 8 43 19 69 25 26 6 68 20 92 31 24 11 57 22 73 24 15 2 38 9 50 15 12 6 24 9 27 6 3 -3 19 2 35 10 16 8 33 12 38 9 5 -3 12 0 15 6 4 5 13 8 21 5 7 -3 16 -1 20 5 3 6 12 8 20 5 7 -3 16 -1 19 5 4 5 12 9 18 8 7 -1 19 1 27 4 30 12 145 35 153 30 4 -2 14 1 22 7 8 6 19 9 25 5 6 -4 16 -2 23 4 7 5 37 13 67 16 54 5 76 9 135 20 17 3 46 8 65 11 19 2 49 6 65 8 59 9 141 18 185 22 25 2 65 6 90 8 150 15 328 26 460 29 52 1 169 6 260 10 100 5 261 4 410 -3 135 -6 295 -13 355 -15 61 -2 126 -7 145 -12 33 -7 53 -9 163 -16 44 -2 49 0 72 33 14 20 25 40 25 46 0 5 14 29 30 54 16 25 30 48 30 52 0 13 -45 32 -85 35 -22 2 -58 5 -80 7 -258 26 -397 35 -570 39 -71 2 -202 7 -290 11 -88 5 -163 5 -166 2z"/>
 <path d="M810 5095 l-45 -46 0 -382 0 -383 38 -38 c21 -21 45 -36 55 -34 16 3 17 36 17 462 0 307 -3 460 -10 463 -6 2 -31 -17 -55 -42z"/>
 <path d="M9033 4718 c-4 -7 -25 -21 -46 -30 l-37 -18 2 -227 c3 -206 5 -228 20 -231 10 -2 34 13 55 34 l38 38 0 220 c0 158 -3 220 -12 223 -6 2 -15 -2 -20 -9z"/>
 <path d="M1365 3818 c-4 -9 -2 -57 4 -107 9 -83 13 -96 45 -135 20 -23 62 -65 93 -93 32 -28 85 -77 119 -109 77 -75 298 -272 404 -363 71 -60 228 -184 335 -264 106 -80 440 -307 450 -307 2 0 28 -14 57 -31 91 -54 266 -145 353 -184 124 -55 152 -68 167 -76 10 -5 26 -9 36 -9 10 0 23 -5 28 -10 6 -6 36 -17 68 -25 31 -8 77 -24 101 -35 24 -11 55 -20 69 -20 14 0 28 -5 31 -10 4 -6 10 -8 15 -5 5 3 22 -1 38 -9 16 -8 32 -13 35 -10 3 3 12 2 19 -2 7 -4 19 -9 28 -9 20 -2 288 -54 320 -63 27 -7 48 -9 125 -16 28 -2 111 -9 185 -16 143 -13 670 -17 780 -7 36 4 90 9 120 12 30 3 75 8 100 10 52 6 93 11 135 20 17 3 44 7 60 9 17 2 30 5 30 6 0 3 14 5 65 13 14 2 31 7 38 11 7 4 17 4 22 1 6 -4 17 -2 24 4 8 7 18 11 22 10 5 -1 16 1 24 4 32 13 94 26 101 21 4 -2 10 0 14 6 3 5 16 10 29 10 13 0 37 7 54 15 17 9 47 18 67 20 20 3 60 16 89 30 29 14 60 25 69 25 9 0 19 5 22 10 3 6 14 10 25 10 10 0 38 10 62 21 23 12 57 28 73 35 83 34 397 197 455 234 8 6 24 15 35 20 66 34 82 50 120 123 22 42 55 103 73 137 18 33 30 65 27 69 -6 10 -80 -23 -90 -40 -4 -5 -17 -15 -28 -20 -12 -5 -35 -18 -52 -29 -16 -11 -39 -24 -50 -30 -11 -6 -40 -22 -65 -36 -109 -63 -373 -191 -490 -237 -14 -5 -33 -13 -42 -18 -10 -5 -25 -9 -34 -9 -10 0 -41 -11 -71 -26 -30 -14 -70 -27 -89 -30 -19 -2 -49 -11 -65 -20 -17 -8 -33 -13 -36 -10 -3 3 -19 -2 -35 -10 -16 -8 -33 -12 -38 -9 -5 3 -12 0 -15 -6 -4 -5 -13 -8 -21 -5 -7 3 -16 1 -20 -5 -3 -6 -12 -8 -20 -5 -7 3 -16 1 -19 -4 -4 -6 -24 -10 -45 -10 -21 0 -42 -5 -45 -11 -4 -6 -14 -8 -22 -5 -9 4 -22 1 -29 -5 -7 -6 -18 -8 -24 -4 -6 4 -17 2 -24 -4 -7 -6 -35 -12 -62 -13 -27 -1 -53 -5 -59 -9 -5 -4 -44 -10 -85 -14 -41 -4 -88 -9 -105 -11 -63 -8 -145 -14 -265 -19 -220 -9 -311 -9 -485 -1 -244 11 -268 13 -410 32 -27 3 -59 6 -70 5 -10 0 -24 3 -30 8 -5 4 -32 8 -59 9 -27 1 -54 6 -61 12 -7 6 -19 8 -28 4 -8 -3 -18 0 -22 6 -4 6 -15 8 -25 5 -10 -3 -21 -1 -25 5 -3 5 -24 10 -45 10 -21 0 -41 4 -45 10 -3 5 -12 7 -19 4 -8 -3 -17 -1 -20 5 -4 6 -13 8 -20 5 -8 -3 -17 0 -21 5 -3 6 -10 9 -15 6 -5 -3 -22 1 -38 9 -16 8 -32 13 -35 10 -3 -3 -19 2 -36 10 -16 9 -46 18 -65 20 -19 3 -59 16 -89 30 -30 15 -61 26 -71 26 -9 0 -24 4 -34 9 -16 8 -28 13 -94 40 -88 35 -352 165 -438 215 -25 14 -54 30 -65 36 -11 6 -33 19 -50 30 -16 11 -37 23 -45 27 -8 3 -28 17 -43 30 -16 13 -33 23 -38 23 -6 0 -44 24 -86 53 -42 28 -92 63 -112 76 -66 44 -196 145 -204 158 -4 7 -13 13 -20 13 -7 0 -32 18 -57 41 -25 22 -57 50 -73 62 -15 12 -37 32 -49 45 -12 12 -26 22 -31 22 -8 0 -27 16 -102 90 -17 17 -34 30 -38 30 -4 0 -25 17 -47 38 -21 20 -63 60 -94 87 -122 112 -219 204 -285 270 -55 55 -71 66 -76 53z"/>
 </g>

</svg>
