<!DOCTYPE svg PUBLIC "-//W3C//DTD SVG 20010904//EN" "http://www.w3.org/TR/2001/REC-SVG-20010904/DTD/svg10.dtd">
<svg version="1.0" xmlns="http://www.w3.org/2000/svg" width="382px" height="366px" viewBox="0 0 3820 3660" preserveAspectRatio="xMidYMid meet">
  <g id="layer101" fill="#30353D" stroke="none">
    <path
      d="M1815 3424 c-258 -26 -458 -85 -650 -195 -413 -235 -694 -636 -772 -1099 -19 -116 -21 -363 -4 -475 104 -669 617 -1190 1281 -1302 126 -21 374 -21 500 0 397 67 750 283 993 608 360 482 403 1154 106 1674 -234 411 -643 698 -1094 770 -96 15 -293 26 -360 19z m385 -119 c87 -20 213 -58 276 -85 l44 -19 0 -111 c0 -156 7 -151 -207 -148 l-166 3 -36 114 -36 114 -65 48 c-36 27 -73 48 -83 49 -9 0 -49 -21 -87 -46 -75 -50 -72 -46 -123 -204 l-24 -75 -161 -3 c-209 -3 -202 -8 -202 152 l0 114 49 21 c64 27 206 67 306 86 106 19 408 14 515 -10z m-948 -370 c41 -77 90 -94 272 -95 106 0 137 -3 133 -12 -2 -7 -13 -39 -22 -70 -10 -31 -26 -60 -34 -63 -9 -4 -93 -35 -187 -70 -191 -71 -257 -101 -326 -152 l-48 -34 -52 28 c-66 34 -198 163 -227 221 l-22 43 57 71 c66 80 222 228 241 228 7 0 20 -14 28 -30 9 -17 27 -36 41 -42 21 -10 28 -8 47 11 l22 22 -28 51 c-16 27 -27 51 -25 53 2 1 26 16 53 33 l50 31 5 -97 c4 -61 12 -108 22 -127z m715 198 c26 -23 38 -51 73 -168 23 -77 47 -158 55 -181 l13 -41 -67 24 c-86 32 -158 32 -243 -1 l-66 -24 20 61 c11 34 23 76 27 92 38 143 65 212 94 238 17 15 38 27 47 27 9 0 30 -12 47 -27z m753 -43 c0 -3 -13 -27 -30 -53 -33 -53 -37 -78 -16 -97 27 -22 60 -7 91 42 17 26 35 47 40 47 32 2 285 -269 285 -304 0 -21 -59 -111 -99 -153 -23 -23 -66 -59 -97 -78 l-55 -35 -38 42 c-37 42 -38 42 -69 30 -30 -12 -39 -10 -130 27 -53 22 -160 63 -238 91 l-140 52 -16 52 c-9 29 -20 60 -23 70 -7 16 4 17 141 17 123 0 156 4 189 19 77 35 105 92 105 211 l0 81 50 -27 c28 -15 50 -30 50 -34z m-460 -512 c412 -152 477 -185 522 -270 22 -42 23 -53 26 -343 4 -331 -5 -443 -43 -554 -95 -279 -339 -480 -628 -516 l-57 -7 0 203 0 204 85 17 c262 50 485 261 549 519 19 76 23 360 5 406 -14 39 -74 98 -117 116 -44 19 -620 120 -677 119 -59 0 -623 -100 -673 -118 -62 -23 -117 -79 -132 -134 -17 -61 -7 -324 15 -405 67 -251 282 -452 534 -502 l81 -16 0 -208 0 -208 -37 6 c-291 42 -524 221 -630 483 -48 119 -53 170 -53 539 0 331 1 346 21 389 23 47 94 109 168 146 34 17 481 186 661 249 30 11 90 -8 380 -115z m-1557 -178 c3 -11 12 -20 21 -20 9 0 16 -7 16 -15 0 -8 -7 -15 -16 -15 -9 0 -18 -9 -21 -20 -7 -26 -9 -25 -42 7 l-28 28 26 27 c31 33 37 34 44 8z m253 -79 c-18 -40 -21 -71 -26 -241 l-5 -195 -22 23 c-23 22 -23 26 -23 268 l0 245 49 -27 48 -28 -21 -45z m2014 -146 c0 -232 -1 -246 -20 -265 -11 -11 -24 -20 -29 -20 -5 0 -11 89 -13 198 -4 160 -8 204 -22 236 -9 21 -16 39 -14 41 7 5 93 55 96 55 1 0 2 -110 2 -245z m-984 195 c32 -6 68 -13 79 -15 12 -2 28 -20 38 -39 29 -63 88 -117 162 -151 38 -18 78 -41 88 -53 28 -31 57 -155 57 -241 0 -72 -13 -140 -40 -206 l-12 -30 -15 30 c-10 19 -15 50 -14 85 2 45 -2 59 -18 74 -18 16 -25 17 -46 8 -14 -6 -25 -16 -25 -22 0 -16 -20 -12 -47 10 -14 11 -32 20 -39 20 -17 0 -54 -35 -54 -51 0 -6 30 -38 66 -72 66 -62 105 -112 118 -154 14 -44 -91 -148 -162 -159 -37 -6 -41 -4 -44 17 -3 22 -59 72 -126 111 -28 17 -30 16 -70 -5 -77 -42 -132 -86 -132 -107 0 -13 -7 -20 -18 -20 -32 0 -136 31 -164 48 -38 24 -205 227 -235 285 -29 57 -27 79 7 87 22 5 25 13 37 95 6 50 19 110 27 134 9 24 16 58 16 77 0 41 22 64 64 64 74 0 139 37 191 109 33 45 35 46 122 62 112 21 118 21 189 9z m-669 -342 c12 -15 23 -107 16 -125 -3 -7 -16 -13 -29 -13 -27 0 -30 5 -39 71 -4 36 -2 51 10 63 20 19 29 20 42 4z m1843 -193 c0 -9 11 -21 25 -27 14 -6 25 -14 25 -18 0 -4 -11 -12 -25 -18 -14 -6 -25 -18 -25 -27 0 -8 -7 -15 -15 -15 -8 0 -15 6 -15 14 0 7 -10 21 -22 30 l-23 16 23 16 c12 9 22 23 22 30 0 8 7 14 15 14 8 0 15 -7 15 -15z m-2408 -102 c7 -15 24 -33 38 -40 33 -16 32 -35 -3 -51 -15 -8 -32 -25 -37 -38 -12 -31 -47 -32 -52 -2 -2 12 -16 29 -33 38 -37 20 -38 37 -5 53 14 7 31 25 38 40 7 15 19 27 27 27 8 0 20 -12 27 -27z m1226 -628 l2 -295 -65 0 -65 0 0 294 0 294 32 21 c32 20 33 20 63 1 l30 -19 3 -296z m1132 250 c5 -14 21 -30 35 -35 32 -12 32 -34 0 -48 -14 -7 -30 -23 -35 -38 -12 -30 -30 -27 -48 8 -6 14 -23 29 -37 32 -32 8 -32 34 0 46 14 5 30 21 35 35 5 14 16 25 25 25 9 0 20 -11 25 -25z m-2070 -275 c6 -11 17 -20 25 -20 21 0 19 -7 -12 -39 l-28 -28 -28 28 -27 28 22 24 c29 31 35 32 48 7z m1638 -192 l-22 -26 -23 24 -22 24 22 24 22 25 23 -23 23 -23 -23 -25z m-1104 -174 c4 -16 18 -30 36 -37 17 -6 30 -18 30 -27 0 -9 -13 -21 -30 -27 -18 -7 -32 -21 -36 -37 -4 -16 -13 -26 -24 -26 -11 0 -20 10 -24 26 -4 16 -18 30 -36 37 -32 12 -42 47 -13 47 23 0 53 29 53 52 0 29 37 23 44 -8z"/>
    <path d="M1390 3100 c-39 -39 -14 -100 42 -100 51 0 78 69 40 103 -25 23 -58 21 -82 -3z"/>
    <path d="M1540 3100 c-39 -39 -14 -100 42 -100 51 0 78 69 40 103 -25 23 -58 21 -82 -3z"/>
    <path d="M2212 3104 c-32 -22 -26 -70 11 -97 l27 -21 28 21 c36 27 42 75 10 97 -12 9 -29 16 -38 16 -9 0 -26 -7 -38 -16z"/>
    <path d="M2362 3104 c-52 -36 1 -127 61 -105 40 15 53 58 29 90 -23 31 -59 37 -90 15z"/>
    <path d="M1852 2316 c-32 -30 -37 -40 -37 -79 0 -52 45 -133 87 -157 25 -14 29 -13 53 10 38 35 75 113 75 156 0 28 -8 44 -34 70 -47 47 -92 47 -144 0z"/>
    <path d="M1637 2150 c-111 -35 -163 -175 -87 -232 61 -45 217 -48 282 -5 100 68 21 229 -118 242 -27 2 -62 0 -77 -5z"/>
    <path d="M2065 2143 c-99 -52 -136 -154 -77 -213 33 -33 87 -50 157 -50 140 0 212 68 174 167 -34 91 -168 142 -254 96z"/>
  </g>
  <g id="layer102" fill="#ff6347" stroke="none">
    <path
      d="M2265 3300 c-3 -5 -4 -11 -1 -11 38 -9 121 -50 134 -66 6 -9 12 -36 12 -60 0 -28 7 -54 20 -71 12 -17 17 -35 14 -49 -11 -41 -79 -36 -86 7 -4 25 -22 30 -26 7 -5 -24 43 -68 64 -60 14 5 16 2 10 -18 -15 -50 -13 -54 32 -57 36 -3 47 1 72 27 30 29 30 30 30 145 l0 115 -27 15 c-44 22 -205 77 -211 71 -3 -3 -11 0 -18 6 -8 7 -14 7 -19 -1z"/>
    <path
      d="M2066 3162 c-3 -6 -1 -23 6 -39 6 -15 12 -31 13 -35 2 -5 4 -10 5 -13 1 -3 4 -9 5 -15 1 -5 4 -12 5 -15 1 -3 4 -9 5 -15 1 -5 4 -13 5 -17 1 -5 3 -12 5 -18 1 -5 3 -13 5 -17 1 -5 3 -12 4 -18 0 -5 4 -10 9 -10 4 0 10 0 13 0 4 0 1 6 -5 13 -6 8 -8 17 -4 20 3 4 0 13 -7 22 -7 8 -9 15 -5 15 4 0 3 6 -3 13 -6 6 -11 15 -11 20 -1 4 -2 9 -2 12 -1 3 -3 10 -4 15 -1 6 -3 11 -4 13 -2 1 -4 15 -6 31 -5 33 -20 53 -29 38z"/>
    <path
      d="M1988 3135 c-7 -7 10 -63 25 -82 5 -7 6 -13 2 -13 -4 0 -2 -7 5 -15 7 -8 9 -15 5 -15 -4 0 -2 -7 5 -15 7 -8 9 -15 5 -15 -4 0 -2 -6 4 -13 6 -8 8 -16 6 -19 -3 -3 0 -18 6 -34 7 -16 13 -32 14 -36 2 -5 3 -9 5 -10 2 -4 9 -38 6 -38 -1 0 -27 9 -59 20 -59 21 -93 25 -100 13 -3 -5 -7 -26 -8 -48 -4 -39 -4 -39 35 -43 22 -2 69 -14 105 -27 36 -13 69 -21 73 -19 10 6 3 34 -18 78 -7 16 -11 32 -9 37 3 4 1 10 -5 14 -6 4 -8 10 -5 15 3 5 1 11 -5 15 -6 4 -8 10 -5 15 3 5 0 21 -7 37 -6 15 -12 31 -13 36 -2 4 -4 9 -5 12 -1 3 -4 10 -5 15 -1 6 -4 12 -5 15 -1 3 -4 10 -5 15 -1 6 -4 13 -5 18 -4 13 -7 27 -8 43 -3 21 -26 52 -34 44z"/>
    <path d="M2184 3066 c-6 -16 19 -65 34 -67 4 0 18 -2 31 -3 29 -3 74 36 69 60 -5 24 -23 21 -26 -4 -7 -47 -82 -49 -82 -2 0 25 -18 36 -26 16z"/>
    <path
      d="M2986 2871 c-3 -5 1 -14 9 -21 22 -18 19 -38 -16 -91 -33 -52 -159 -176 -201 -198 -24 -12 -29 -11 -57 8 -44 32 -131 69 -336 146 -172 64 -208 85 -198 111 6 15 -14 28 -22 14 -3 -5 -3 -16 2 -22 4 -7 8 -15 9 -18 11 -56 31 -104 48 -115 11 -7 73 -32 136 -55 63 -23 166 -62 228 -87 104 -42 115 -44 144 -32 30 12 32 11 68 -31 l37 -43 58 37 c32 21 80 60 107 88 46 47 108 141 108 163 0 11 -94 140 -110 150 -5 3 -11 1 -14 -4z"/>
    <path
      d="M1885 2710 c-3 -5 20 -21 52 -36 101 -46 315 -140 396 -174 43 -18 105 -50 138 -72 48 -32 57 -43 48 -54 -13 -16 -14 -15 23 -19 62 -8 137 -63 157 -118 18 -46 14 -330 -5 -406 -20 -80 -56 -164 -89 -207 -13 -17 -20 -35 -15 -40 11 -12 -5 -124 -31 -209 -64 -214 -203 -380 -383 -460 -67 -30 -66 -46 1 -34 279 52 516 258 608 530 38 111 47 223 43 554 -3 287 -4 302 -25 341 -29 55 -92 107 -178 150 -88 43 -647 249 -697 257 -21 3 -40 2 -43 -3z"/>
    <path
      d="M648 2403 l-37 -38 31 -35 c18 -19 37 -35 44 -36 18 -3 37 23 28 37 -4 8 -3 9 5 5 14 -9 40 10 37 27 -3 23 -18 38 -33 33 -8 -3 -11 -1 -8 5 7 10 -11 39 -24 39 -4 0 -23 -17 -43 -37z m62 -63 c-19 -19 -27 -22 -33 -12 -5 7 -13 10 -18 6 -5 -3 -8 0 -7 8 2 7 -2 12 -8 11 -6 -1 -11 4 -11 12 0 8 5 13 11 12 6 -1 10 4 9 11 -2 6 3 11 10 10 6 -2 11 3 9 11 -2 8 12 1 30 -15 l33 -28 -25 -26z"/>
    <path
      d="M2037 2374 c-10 -10 2 -24 21 -24 10 0 27 -19 41 -45 13 -25 44 -64 70 -87 l46 -43 -71 0 c-62 0 -75 -3 -107 -28 -34 -26 -77 -87 -61 -87 4 0 1 -6 -5 -14 -8 -9 -8 -16 -2 -20 5 -4 12 -2 16 4 3 5 3 10 0 10 -4 0 3 14 15 30 64 90 225 92 288 3 11 -16 20 -31 21 -35 1 -5 3 -8 6 -8 3 0 8 0 11 0 4 0 1 7 -6 15 -7 8 -10 15 -6 15 14 0 -26 60 -56 84 l-33 26 45 -15 c90 -32 119 -89 127 -257 5 -90 2 -117 -16 -178 -20 -63 -24 -70 -35 -55 -9 12 -15 14 -20 7 -9 -15 33 -57 45 -45 5 5 19 36 31 69 48 133 29 348 -36 423 -18 20 -61 48 -102 67 -73 33 -110 68 -145 135 -23 46 -63 72 -82 53z"/>
    <path d="M1916 2352 c-7 -12 -1 -17 36 -26 57 -13 75 -85 40 -153 -13 -24 -18 -44 -12 -48 8 -5 53 69 53 85 0 3 2 11 4 18 9 23 -7 79 -30 100 -26 25 -81 39 -91 24z"/>
    <path d="M3120 1855 c-6 -8 -8 -20 -4 -26 4 -7 3 -9 -2 -6 -15 9 -37 -9 -39 -33 -2 -21 27 -45 39 -32 4 3 4 -1 1 -9 -7 -19 20 -45 30 -29 3 5 -8 24 -25 41 -31 31 -31 32 -11 46 26 18 44 50 32 57 -5 3 -14 -1 -21 -9z"/>
    <path
      d="M1917 1643 c-4 -3 -7 -25 -7 -49 0 -38 -4 -45 -35 -64 -46 -28 -35 -45 12 -20 20 10 41 16 47 13 79 -46 126 -86 126 -108 0 -32 13 -38 66 -30 37 5 55 17 113 74 62 61 77 88 61 109 -2 1 -3 7 -4 12 0 6 -4 10 -8 10 -5 0 -11 0 -14 0 -4 0 -1 -6 5 -14 21 -25 -36 -50 -139 -62 -60 -7 -60 -7 -60 20 0 33 -25 58 -89 91 -53 26 -64 29 -74 18z"/>
    <path
      d="M2323 1381 c-29 -16 -53 -27 -53 -24 0 3 -7 0 -15 -7 -8 -7 -15 -9 -15 -4 0 4 -5 3 -11 -3 -6 -6 -17 -9 -24 -7 -16 7 -29 -12 -15 -21 6 -4 17 -1 25 5 8 7 15 9 15 5 0 -4 7 -2 15 5 8 7 15 9 15 5 0 -4 7 -2 15 5 8 7 15 10 15 6 0 -3 23 5 50 19 28 14 48 30 45 35 -8 12 -1 14 -62 -19z"/>
  </g>
  <g id="layer103" fill="#1e90ff" stroke="none">
    <path d="M1643 2796 c-4 -8 -96 -47 -203 -86 -212 -79 -229 -86 -310 -138 -53 -34 -54 -35 -34 -51 19 -15 24 -23 24 -36 0 -3 20 6 44 20 24 14 138 61 252 104 l209 78 21 56 c12 31 18 59 14 62 -5 3 -12 -1 -17 -9z"/>
    <path d="M1614 2160 c-38 -19 -84 -68 -88 -93 -1 -7 -5 -17 -9 -24 -4 -6 -3 -14 3 -18 10 -6 11 -5 14 14 3 23 51 74 82 87 75 31 174 11 216 -46 12 -17 23 -36 23 -41 0 -5 3 -9 8 -9 6 0 9 5 6 13 0 1 -2 9 -4 19 -6 31 -49 78 -90 98 -53 25 -109 25 -161 0z"/>
    <path
      d="M1848 1620 c-58 -31 -88 -61 -88 -92 0 -14 -8 -18 -40 -18 -29 0 -42 -5 -50 -20 -6 -11 -17 -20 -26 -20 -21 0 -90 36 -146 76 -26 18 -50 30 -53 25 -2 -5 26 -40 63 -79 56 -59 76 -73 122 -86 30 -9 73 -17 95 -19 38 -2 40 0 43 28 3 26 15 37 83 79 l80 49 -3 50 c-2 28 -7 52 -13 53 -5 2 -36 -10 -67 -26z"/>
  </g>

</svg>
